<?xml version="1.0" encoding="utf-8"?>
<!-- Generator: Adobe Illustrator 24.1.1, SVG Export Plug-In . SVG Version: 6.00 Build 0)  -->
<svg version="1.1" id="Слой_1" xmlns="http://www.w3.org/2000/svg" xmlns:xlink="http://www.w3.org/1999/xlink" x="0px" y="0px"
	 viewBox="0 0 1000 1000" style="enable-background:new 0 0 1000 1000;" xml:space="preserve">
<style type="text/css">
	.st0{fill:#FDD0B1;}
	.st1{fill:#F2B4A2;}
	.st2{fill:#F3B4A2;}
	.st3{fill:#DBB79E;}
	.st4{fill:#68341B;}
	.st5{fill:#E8BA9A;}
	.st6{opacity:0.38;fill:#FFFFFF;}
	.st7{fill:#5F230C;}
	.st8{fill:#FDEADD;}
	.st9{fill:#FFFFFF;}
	.st10{opacity:5.000000e-02;fill:#010101;}
	.st11{fill:url(#SVGID_1_);}
	.st12{fill:#010101;}
	.st13{opacity:0.25;fill:url(#SVGID_2_);}
	.st14{fill:url(#SVGID_3_);}
	.st15{opacity:0.25;fill:#FFFFFF;}
	.st16{opacity:0.19;fill:#3F3E3E;}
	.st17{fill:#3F3E3E;}
	.st18{opacity:0.29;fill:#3F3E3E;}
	.st19{opacity:0.36;fill:#3F3E3E;}
	.st20{fill:#EB795F;}
	.st21{fill:#D3624F;}
	.st22{opacity:0.19;fill:#40403F;}
	.st23{fill:#40403F;}
	.st24{opacity:0.66;fill:#40403F;}
	.st25{fill:#171717;}
</style>
<g>
	<g>
		<path class="st0" d="M173.6,467.1c51-36.5,84.5,13.1,84.5,13.1l-0.8,20.3l-0.7,17l-4.2,106.1C233.9,688.6,122.6,503.6,173.6,467.1
			z"/>
		<path class="st1" d="M236.2,579.1c6,43.3-87.4-87.5-42.3-100.5c32.7-9.5,54.2,10.4,63.4,22l-0.7,17c-0.8-0.2-1.6-0.5-2.5-0.7
			C212.9,504.8,230.1,535.8,236.2,579.1z"/>
	</g>
	<g>
		<g>
			<g>
				<path class="st0" d="M807.4,467.1c-51-36.5-84.5,13.1-84.5,13.1l0.8,20.3l0.7,17l4.2,106.1C747,688.6,858.4,503.6,807.4,467.1z"
					/>
				<path class="st2" d="M744.8,579.1c-6,43.3,87.4-87.5,42.3-100.5c-32.7-9.5-54.2,10.4-63.4,22l0.7,17c0.8-0.2,1.6-0.5,2.5-0.7
					C768,504.8,750.8,535.8,744.8,579.1z"/>
			</g>
			<path class="st0" d="M763.6,566.7c0,31.9-10.6,84.1-18.3,113.7c-15.3,58.7-37.5,90.4-69.7,133c-15.3,20.2-42,41.3-61.1,54.2
				c-52.8,35.9-73.5,54.4-127,54.4c-55.8,0-76-13.8-127-48.9c-18.3-12.7-44.9-39.4-59.4-59.7c-27.8-38.9-50.2-75.6-65.4-129
				c-8.8-31-17.5-75.1-17.5-108.9c0-84.1,6.3-217.8,44.3-278.4c50-79.6,131.2-79.9,216.6-79.9c59.3,0,165-4.2,212.3,36.4
				C764.2,316.1,763.6,448.8,763.6,566.7z"/>
			<path class="st3" d="M484.9,658.7l-64.2,4c0,0,13.7,35.8,64.2,35.8s64.2-35.8,64.2-35.8L484.9,658.7z"/>
			<g>
				<path class="st4" d="M441.6,673.1c0,0,9.3-12.7,26.5,0h34.9c0,0,20-13.2,25.1,0l6.6-2.6l12.6-14.6l-3.3-8.1l-25.9-7.4
					c0,0-27.6-1.2-34.8-1.5c-7.3-0.2-33.8-1.4-33.8-1.4s-14.2,3.8-15,4.5c-0.8,0.7-4.9,4.5-4.9,4.5l-1,16.9l8.3,7.8l2.5,1
					L441.6,673.1z"/>
				<path class="st0" d="M528.2,673.1c0.4-0.2,14.9-7.7,6.9-19c-8.1-11.4-20.5,26.3-50.2,26.3c-29.7,0-42.1-37.8-50.2-26.3
					c-8,11.3,6.5,18.8,6.9,19c-24.4-6.1-31.6-17.1-29.6-30.1c2.1-13.5,14.2-29.2,27.6-44c26.2-29.1,16.3-79.5,16.3-79.5h57.9
					c0,0-9.9,50.4,16.3,79.5c13.2,14.7,25.2,30.2,27.5,43.6C560,655.7,552.8,666.8,528.2,673.1z"/>
				<g>
					<path class="st5" d="M528.2,673.1c0.4-0.2,14.9-7.7,6.9-19c-8.1-11.4-20.5,26.3-50.2,26.3c-29.7,0-42.1-37.8-50.2-26.3
						c-8,11.3,6.5,18.8,6.9,19c-24.4-6.1-31.6-17.1-29.6-30.1c1.7,4.2,6.7,7.1,11.2,5.8c5.7-1.7,8.4-8.2,13.5-11.3
						c6.4-3.9,14.9-1.2,20.9,3.2c6.1,4.3,11.1,10.2,17.7,13.7c9.6,5,22.2,3.7,30.2-3.5c5.2-4.7,9.1-11.9,16.1-13.1
						c5.9-1,11.3,2.8,16.4,5.9c5.1,3.1,11.8,5.6,16.7,2.2c1.3-0.9,2.2-2,3.1-3.3C560,655.7,552.8,666.8,528.2,673.1z"/>
				</g>
			</g>
			<path class="st6" d="M538.2,657.2c-3.4-11.3-10.2-8-21.3,5.4c-11,13.4-25.5,16-32,16c-6.5,0-21-2.6-32-16
				c-11-13.4-17.9-16.7-21.3-5.4c-2.1,7.1,2.4,12,5.9,14.7c1.3,0.4,2.7,0.8,4.1,1.1c-0.4-0.2-14.9-7.7-6.9-19
				c8.1-11.4,20.5,26.3,50.2,26.3c29.7,0,42.1-37.8,50.2-26.3c8,11.3-6.5,18.8-6.9,19c1.4-0.3,2.7-0.7,4-1.1
				C535.8,669.3,540.3,664.4,538.2,657.2z"/>
		</g>
	</g>
	<path class="st7" d="M703.9,259.5c12.6,52.7,28.5,104.7,47.5,155.5c-19.8-50.5-36.5-102.3-49.9-154.9L703.9,259.5z"/>
	<g>
		<path class="st0" d="M559.8,420.6c0,0-40.4,166.2-3.5,213.9c36.9,47.7,189.5,44.7,167.5-154.8l-10.1-21.3l-31.5-2.3l-25.3-5.1
			l-27.7-0.3l-36.9-3.7l-10,3.7L559.8,420.6z"/>
		<g>
			<path class="st8" d="M557,573.9c0,0,44.5,46.1,134.5-16.6L557,573.9z"/>
			<path class="st9" d="M557,573.9c0,0,11.5-44.5,22.1-50.3c10.6-5.7,75.2-27.2,112.4,33.7C691.4,557.4,608.2,610.5,557,573.9z"/>
			<path class="st10" d="M682.3,562.7c5.8-3.1,9.2-5.3,9.2-5.3c-37.2-60.9-101.8-39.5-112.4-33.7c-1.9,1-3.9,3.3-5.8,6.4
				C588.3,523.4,646.9,507.5,682.3,562.7z"/>
			<g>
				
					<linearGradient id="SVGID_1_" gradientUnits="userSpaceOnUse" x1="-3100.6572" y1="661.7039" x2="-3100.6572" y2="727.9235" gradientTransform="matrix(0.9863 0.1648 -0.1648 0.9863 3788.9167 376.3207)">
					<stop  offset="0" style="stop-color:#C2B59B"/>
					<stop  offset="1" style="stop-color:#000000"/>
				</linearGradient>
				<path class="st11" d="M583.6,556.1c3,18,20.1,30.2,38.1,27.1c6.1-1,11.5-3.7,15.9-7.4c8.6-7.3,13.2-18.8,11.2-30.7
					c-3-18-20.1-30.2-38.1-27.1c-14,2.4-24.5,13.3-27,26.5C583,548.2,582.9,552.2,583.6,556.1z"/>
				
					<ellipse transform="matrix(4.420938e-02 -0.999 0.999 4.420938e-02 39.1431 1142.0946)" class="st12" cx="616.4" cy="550.6" rx="20.6" ry="20.6"/>
				<linearGradient id="SVGID_2_" gradientUnits="userSpaceOnUse" x1="583.7006" y1="546.6799" x2="649.3375" y2="546.6799">
					<stop  offset="0" style="stop-color:#FFFFFF"/>
					<stop  offset="1" style="stop-color:#000000"/>
				</linearGradient>
				<path class="st13" d="M583.7,544.5c2.4-1.7,5-3.2,7.9-4.3c17.6-6.7,37.3,2,44,19.6c2,5.3,2.6,10.8,2,16.1
					c8.6-7.3,13.2-18.8,11.2-30.7c-3-18-20.1-30.2-38.1-27.1C596.7,520.4,586.2,531.3,583.7,544.5z"/>
				<path class="st9" d="M593.1,544.2c1,2.7,4,4,6.7,3c2.7-1,4-4,3-6.7c-1-2.7-4-4-6.7-3C593.4,538.5,592.1,541.5,593.1,544.2z"/>
				<path class="st9" d="M607.2,570.8c0.6,1.5,2.3,2.3,3.9,1.7c1.5-0.6,2.3-2.3,1.7-3.9c-0.6-1.5-2.3-2.3-3.9-1.7
					C607.4,567.5,606.6,569.3,607.2,570.8z"/>
			</g>
			<path class="st12" d="M580.9,528.2c10.2-5.5,71.7-25.9,108,30.7c1.6-1,2.5-1.5,2.5-1.5c-37.2-60.9-101.8-39.5-112.4-33.7
				c-10.6,5.7-22.1,50.3-22.1,50.3c0.9,0.6,1.8,1.3,2.7,1.8C561.7,568.5,571.6,533.2,580.9,528.2z"/>
		</g>
		<path class="st0" d="M415.1,420.6c0,0,40.4,166.2,3.5,213.9c-36.9,47.7-189.5,44.7-167.5-154.8l11.4-24.8l30.2,1.2L318,451
			l27.7-0.3l36.9-3.7l10,3.7L415.1,420.6z"/>
		<g>
			<path class="st8" d="M418,573.9c0,0-44.5,46.1-134.5-16.6L418,573.9z"/>
			<path class="st9" d="M418,573.9c0,0-11.5-44.5-22.1-50.3c-10.6-5.7-75.2-27.2-112.4,33.7C283.5,557.4,366.8,610.5,418,573.9z"/>
			<path class="st10" d="M292.7,562.7c-5.8-3.1-9.2-5.3-9.2-5.3c37.2-60.9,101.8-39.5,112.4-33.7c1.9,1,3.9,3.3,5.8,6.4
				C386.7,523.4,328.1,507.5,292.7,562.7z"/>
			<g>
				
					<linearGradient id="SVGID_3_" gradientUnits="userSpaceOnUse" x1="-6738.9634" y1="1269.6252" x2="-6738.9634" y2="1335.8448" gradientTransform="matrix(-0.9863 0.1648 0.1648 0.9863 -6502.6069 376.3207)">
					<stop  offset="0" style="stop-color:#C2B59B"/>
					<stop  offset="1" style="stop-color:#000000"/>
				</linearGradient>
				<path class="st14" d="M391.4,556.1c-3,18-20.1,30.2-38.1,27.1c-6.1-1-11.5-3.7-15.9-7.4c-8.6-7.3-13.2-18.8-11.2-30.7
					c3-18,20.1-30.2,38.1-27.1c14,2.4,24.5,13.3,27,26.5C392,548.2,392,552.2,391.4,556.1z"/>
				
					<ellipse transform="matrix(0.9135 -0.4068 0.4068 0.9135 -192.9874 193.4763)" class="st12" cx="358.5" cy="550.6" rx="20.6" ry="20.6"/>
				<path class="st15" d="M391.3,544.5c-2.4-1.7-5-3.2-7.9-4.3c-17.6-6.7-37.3,2-44,19.6c-2,5.3-2.6,10.8-2,16.1
					c-8.6-7.3-13.2-18.8-11.2-30.7c3-18,20.1-30.2,38.1-27.1C378.3,520.4,388.8,531.3,391.3,544.5z"/>
				<path class="st9" d="M381.9,544.2c-1,2.7-4,4-6.7,3c-2.7-1-4-4-3-6.7c1-2.7,4-4,6.7-3C381.6,538.5,382.9,541.5,381.9,544.2z"/>
				<path class="st9" d="M367.8,570.8c-0.6,1.5-2.3,2.3-3.9,1.7c-1.5-0.6-2.3-2.3-1.7-3.9s2.3-2.3,3.9-1.7
					C367.6,567.5,368.4,569.3,367.8,570.8z"/>
			</g>
			<path class="st12" d="M394.1,528.2c-10.2-5.5-71.7-25.9-108,30.7c-1.6-1-2.5-1.5-2.5-1.5c37.2-60.9,101.8-39.5,112.4-33.7
				c10.6,5.7,22.1,50.3,22.1,50.3c-0.9,0.6-1.8,1.3-2.7,1.8C413.3,568.5,403.3,533.2,394.1,528.2z"/>
		</g>
		<g>
			<g>
				<path class="st16" d="M415.1,420.6l-8.4,32.6l0.3,1.9c-4.1-3.5-8-6.7-8.3-6.8c-0.7-0.3-69.1-1-69.1-1l-40.5,1.8l-13.3,3.9
					l-7.9,5.7c0,0-7,4.1-7.7,6.4c-0.7,2.3-9.1,14.5-9.1,14.5s21.8-13.6,38.3-15.6l-8.9-1.3c0,0,14.6-3.5,30.1-2.4
					c15.5,1.1,99.1,9.5,105,5.8C420.3,445.4,415.1,420.6,415.1,420.6z"/>
				<g>
					<path class="st17" d="M410.5,458.5c0,0-75.7-2.5-95.9-3.4c-20.2-1-43.6,7.7-43.6,7.7c2.3-0.4,6.4-0.4,6.4-0.4
						c-13.8,4.2-25.9,16.8-26.3,17.2c0,0,0,0,0,0c1.2-32.7,40.5-44,40.5-44l-5.3,0.4c17.7-8.1,42.5-9.5,42.5-9.5l-7.1-1.6
						c28.2-7.9,84.4-5.3,84.4-5.3c0.1,1.8,0.1,9,0.1,9l8.9-8.2C418.9,436.8,410.5,458.5,410.5,458.5z"/>
					<path class="st17" d="M262.5,461.5c0,0,24.6-12.6,45.2-11.8c0,0-2.4-1.9-8.2-2.4c0,0,31.2-4.6,49.5,3.5c0,0-1.8-3.8-7.3-6.2
						c0,0,35.1-0.8,51.2,6.5c0,0-0.9-3.8-5.9-5.7c0,0,8.6,0.9,16.7,6.1c0,0,8.9-21.2,9.5-25.2c0,0-4.3,5.8-7.9,8.1l-0.7-12.4
						c0,0-43-3.2-76.2,2.5c0,0,4.6,1.4,6.5,3.3c0,0-27.9,3-36.3,6.3c0,0,7.9-0.6,11.1,0.8C309.8,434.8,274.7,440.8,262.5,461.5z"/>
					<path class="st18" d="M410.5,458.5c0,0-75.7-2.5-95.9-3.4c-20.2-1-43.6,7.7-43.6,7.7c2.3-0.4,6.4-0.4,6.4-0.4
						c-13.8,4.2-25.9,16.8-26.3,17.2c5.2-10.2,18.6-16,18.6-16c-2.2-0.2-4.2,0.2-4.2,0.2c16.1-12.4,50.6-13.1,50.6-13.1
						c-0.9-1.2-3.8-2.5-3.8-2.5c13.8-2.7,39.6,4,39.6,4c0.4-2.5-1.6-4.8-1.6-4.8c22.2-0.9,46.8,7,46.8,7c-0.4-1-2.2-5.7-2.2-5.7
						c2.3,0.7,10.4,5.3,10.4,5.3c9-8.7,9.8-33.4,9.8-33.4C418.9,436.8,410.5,458.5,410.5,458.5z"/>
					<path class="st19" d="M297.7,447.9c0,0-14.9,3-23.5,5.3c0,0,25.6-16.7,46.3-16.8c0,0-5-2.9-9.5-3.7c0,0,21-3.1,35.3-1.9
						c0,0-2.5-3.2-7.8-5.2c0,0,51-1.5,63.7-0.9l2.3,13.4c0,0,4.5-4.4,5.3-6.1l-6.8,16.3c0,0-11.2-6-19.7-4c0,0,4.5,1.9,6.3,4.2
						c0,0-30.5-9.5-50.5-4.8c0,0,4.1,2,5.5,3.8c0,0-19.5-8.1-49.6-1.7L297.7,447.9z"/>
					<path class="st19" d="M318.3,441.1c0,0,43.3-5.2,60.1,2.7c0,0,10.4-4.7,19.8-0.4l4.3-4.8l-6.5,1.5l0-12.3l-48-0.2l6.2,7
						c0,0-26.9-2.6-31.1-2.3l11,3.8L318.3,441.1z"/>
				</g>
			</g>
			<g>
				<path class="st16" d="M559.8,420.6l8.4,32.6l-0.3,1.9c4.1-3.5,8-6.7,8.3-6.8c0.7-0.3,69.1-1,69.1-1l40.5,1.8l13.3,3.9l7.9,5.7
					c0,0,7,4.1,7.7,6.4c0.7,2.3,9.1,14.5,9.1,14.5s-21.8-13.6-38.3-15.6l8.9-1.3c0,0-14.6-3.5-30.1-2.4c-15.5,1.1-99.1,9.5-105,5.8
					C554.6,445.4,559.8,420.6,559.8,420.6z"/>
				<g>
					<path class="st17" d="M564.5,458.5c0,0,75.7-2.5,95.9-3.4c20.2-1,43.6,7.7,43.6,7.7c-2.3-0.4-6.4-0.4-6.4-0.4
						c13.8,4.2,25.9,16.8,26.3,17.2c0,0,0,0,0,0c-1.2-32.7-40.5-44-40.5-44l5.3,0.4c-17.7-8.1-42.5-9.5-42.5-9.5l7.1-1.6
						c-28.2-7.9-84.4-5.3-84.4-5.3c-0.1,1.8-0.1,9-0.1,9l-8.9-8.2C556.1,436.8,564.5,458.5,564.5,458.5z"/>
					<path class="st17" d="M712.5,461.5c0,0-24.6-12.6-45.2-11.8c0,0,2.4-1.9,8.2-2.4c0,0-31.2-4.6-49.5,3.5c0,0,1.8-3.8,7.3-6.2
						c0,0-35.1-0.8-51.2,6.5c0,0,0.9-3.8,5.9-5.7c0,0-8.6,0.9-16.7,6.1c0,0-8.9-21.2-9.5-25.2c0,0,4.3,5.8,7.9,8.1l0.7-12.4
						c0,0,43-3.2,76.2,2.5c0,0-4.6,1.4-6.5,3.3c0,0,27.9,3,36.3,6.3c0,0-7.9-0.6-11.1,0.8C665.2,434.8,700.3,440.8,712.5,461.5z"/>
					<path class="st18" d="M564.5,458.5c0,0,75.7-2.5,95.9-3.4c20.2-1,43.6,7.7,43.6,7.7c-2.3-0.4-6.4-0.4-6.4-0.4
						c13.8,4.2,25.9,16.8,26.3,17.2c-5.2-10.2-18.6-16-18.6-16c2.2-0.2,4.2,0.2,4.2,0.2c-16.1-12.4-50.6-13.1-50.6-13.1
						c0.9-1.2,3.8-2.5,3.8-2.5c-13.8-2.7-39.6,4-39.6,4c-0.4-2.5,1.6-4.8,1.6-4.8c-22.2-0.9-46.8,7-46.8,7c0.4-1,2.2-5.7,2.2-5.7
						c-2.3,0.7-10.4,5.3-10.4,5.3c-9-8.7-9.8-33.4-9.8-33.4C556.1,436.8,564.5,458.5,564.5,458.5z"/>
					<path class="st19" d="M677.3,447.9c0,0,14.9,3,23.5,5.3c0,0-25.6-16.7-46.3-16.8c0,0,5-2.9,9.5-3.7c0,0-21-3.1-35.3-1.9
						c0,0,2.5-3.2,7.8-5.2c0,0-51-1.5-63.7-0.9l-2.3,13.4c0,0-4.5-4.4-5.3-6.1l6.8,16.3c0,0,11.2-6,19.7-4c0,0-4.5,1.9-6.3,4.2
						c0,0,30.5-9.5,50.5-4.8c0,0-4.1,2-5.5,3.8c0,0,19.5-8.1,49.6-1.7L677.3,447.9z"/>
					<path class="st19" d="M656.6,441.1c0,0-43.3-5.2-60.1,2.7c0,0-10.4-4.7-19.8-0.4l-4.3-4.8l6.5,1.5l0-12.3l48-0.2l-6.2,7
						c0,0,26.9-2.6,31.1-2.3l-11,3.8L656.6,441.1z"/>
				</g>
			</g>
		</g>
	</g>
	<g>
		<path class="st20" d="M487.5,820.1c34.1,0,52.8-13.3,52.8-13.3s-26.7,5.9-52.8,5.9c-26.1,0-52.8-5.9-52.8-5.9
			S453.4,820.1,487.5,820.1z"/>
		<path class="st20" d="M487.5,781.2l84-3.2c0,0-25.6-13.8-84-13.8l0,0c0,0,0,0,0,0c0,0,0,0,0,0l0,0c-58.4,0-84,13.8-84,13.8
			L487.5,781.2L487.5,781.2L487.5,781.2L487.5,781.2L487.5,781.2z"/>
		<path class="st21" d="M626.8,771.2c0,0-19.3,5.5-55.9,9.6c-21.8,2.5-49.8,4.4-83.5,4.4c-33.7,0-61.6-2-83.5-4.4
			c-36.5-4.1-55.9-9.6-55.9-9.6s25.9,3.2,64.5,5.6c21.7,1.3,47.4,2.3,74.8,2.3c27.4,0,53.1-1,74.8-2.3
			C600.9,774.5,626.8,771.2,626.8,771.2z"/>
	</g>
	<g>
		<path class="st22" d="M744.5,494.7l3.2-123.1l-23.8-112c0,0-245.8-7.3-258.7-5.7c-12.9,1.6-176.5,2.8-176.5,2.8
			s-63,18.4-62.4,21.3c0.7,2.9,2.8,118,2.8,118l15.3,129.3c0,0,19.4-137.4,50.6-190.6c5.2,10.2,8.3,21.5,9,33.5
			c-0.2-12.5-2.9-24.4-7.9-35.2c0.1-0.1,0.1-0.2,0.2-0.2c0.9,0.7,1.9,1.4,2.9,2c4.6,3,9.7,5.2,14.8,6.9c5.2,1.6,10.4,2.7,15.7,3.5
			c5.3,0.8,10.6,1.3,15.9,1.8c-5.3-0.9-10.5-1.8-15.7-2.9c-5.2-1.2-10.3-2.6-15.2-4.5c-4.9-1.9-9.5-4.4-13.6-7.6
			c-0.5-0.4-1.1-0.8-1.6-1.3c5.8,0,24.2,0,46.9-0.3c0.7,0.8,1.6,1.7,2.6,2.4c1.6,1.2,3.6,2.1,5.8,3c4.4,1.6,9.5,2.5,14.7,2.7
			c5.2,0.2,10.4-0.3,15.4-1.1c5-0.9,9.7-2.1,14.2-3.5c5.8-1.8,11.4-3.9,17-5.7c5.9-0.4,11.6-0.8,16.8-1.2c26,7,54.5,10.4,82.9,10
			c21.4-0.3,42.8-2.7,63.3-7.2c39.2,0.5,76.4-1.3,99.1-10.2c-1.4,1.9-2.8,3.8-4.5,5.5c-3.2,3.4-7,6.5-11,8.9
			c-4.1,2.4-8.6,4.2-13.2,5.2c4.7-0.8,9.3-2.5,13.5-4.7c4.2-2.3,8.1-5.2,11.6-8.6c1.7-1.6,3.2-3.4,4.6-5.3
			c2.6,10.2,2.3,21.4-1.2,31.7c4-8.6,5.8-18.4,5.1-28.1c2.5,6.1,6.9,16.9,12.2,32.1c0.7,16.2,2,32.4,4,48.4
			c-1.2-14.4-1.9-28.8-2.2-43.2c4.2,12.2,8.9,26.9,13.8,43.9c0.2,9.5,1,18.9,2.6,28.3c2.1,11.9,5.6,23.5,11,34.3
			c1.2,2.4,2.5,4.8,3.9,7.1c3.4,15.7,6.7,32.5,9.8,50.3l5.7-10.4L744.5,494.7c0.6,0.6,1.2,1.2,1.9,1.7
			C745.7,495.9,745.1,495.3,744.5,494.7z M397.9,332.6c-4.4,1.4-8.9,2.7-13.6,3.6c-4.7,0.9-9.7,1.4-14.7,1.3
			c-5-0.1-9.9-0.9-14.2-2.4c-2.1-0.7-4-1.7-5.6-2.7c-0.9-0.6-1.7-1.3-2.4-2.1c19.6-0.3,42.2-0.9,62.5-2
			C405.9,329.8,402,331.3,397.9,332.6z M515.7,333.7c-27.7,1.4-56-0.9-82.5-6.9c1.6-0.1,3.2-0.3,4.7-0.4c24.2-2.4,70.7,1.2,118,2.7
			C542.8,331.5,529.3,333,515.7,333.7z M725.3,467.6c-5.1-10.8-8.3-22.4-10.1-34.2c-1-6.5-1.6-13.1-1.8-19.7
			c4.9,17.6,9.9,37.4,14.7,59.4C727.1,471.2,726.2,469.4,725.3,467.6z"/>
		<path class="st23" d="M271.8,297.2c3.3,4.6,7.5,8.4,12.1,11.4c4.6,3,9.7,5.2,14.8,6.9c5.2,1.6,10.4,2.7,15.7,3.5
			c5.3,0.8,10.6,1.3,15.9,1.8c-5.3-0.9-10.5-1.8-15.7-2.9c-5.2-1.2-10.3-2.6-15.2-4.5c-4.9-1.9-9.5-4.4-13.6-7.6
			c-4.1-3.1-7.7-6.8-10.3-11.1L271.8,297.2z"/>
		<path class="st23" d="M273.8,294.7c9.6,13.7,14.8,29.9,15,47.4c-1-17.3-6.8-33.1-17-46.2L273.8,294.7z"/>
		<path class="st23" d="M739.2,214.8c6.2,2.9,12.5,5.8,18.5,9.5c5.9,3.7,11.5,8.2,15.7,14c4.2,5.8,6.7,12.5,8,19.4
			c1.3,6.9,1.6,13.8,1.4,20.7c-0.8,27.6-8.7,54.8-22.8,78.3c13.5-23.8,20.8-51.1,20.9-78.4c0-6.8-0.4-13.6-1.8-20.2
			c-1.4-6.6-4-12.9-8-18.1c-4-5.3-9.3-9.4-15.1-12.8c-5.8-3.4-12-6.1-18.3-8.8L739.2,214.8z"/>
		<path class="st23" d="M770.5,276.8c7.5,35.9,9.8,72.8,6.9,109.1c0.8-36.4-3.6-72.8-13-107.7L770.5,276.8z"/>
		<path class="st23" d="M763.3,356.7c8.6,19.5,12.8,40.7,12.8,61.8c0,21.1-4.1,42-12.4,61.2c7.3-19.5,10.4-40.5,9.3-61.1
			c-1.1-20.6-6.2-40.9-15.3-59.2L763.3,356.7z"/>
		<path class="st23" d="M225.7,233.4c-1.9,0.7-3.8,1.7-5.5,2.9c-1.7,1.2-3.3,2.7-4.8,4.3c-1.4,1.6-2.7,3.4-3.9,5.3
			c-1.1,1.9-2.1,3.9-3,6c-1.7,4.2-2.9,8.7-3.8,13.3c-0.9,4.6-1.8,9.2-2.4,13.9c-0.7,4.7-1.2,9.3-1.6,14c-0.4,4.7-0.6,9.4-0.7,14.1
			c-0.2,9.4,0.3,18.9,1.3,28.3c-1.5-9.3-2.5-18.8-2.8-28.3c-0.2-4.7-0.2-9.5-0.1-14.2c0.1-4.8,0.4-9.5,0.8-14.3
			c0.4-4.7,1-9.5,1.7-14.2c0.7-4.7,1.7-9.5,3.3-14.2c0.8-2.3,1.8-4.6,2.9-6.9c1.2-2.2,2.5-4.4,4.1-6.4c1.6-2,3.4-3.8,5.4-5.5
			c2-1.6,4.3-3,6.8-4L225.7,233.4z"/>
		<path class="st23" d="M220.1,345.4c-5.6,9.8-9.3,20.8-11.1,32.1c-1.9,11.3-2,23-0.8,34.5c1.2,11.5,3.7,23,6.9,34.2
			c3.2,11.2,7.2,22.3,11.4,33.2c-4.7-10.7-9.1-21.6-12.8-32.7c-3.7-11.1-6.8-22.6-8.5-34.3c-1.7-11.7-2.1-23.7-0.7-35.6
			c1.4-11.9,4.7-23.6,10.3-34.4L220.1,345.4z"/>
		<path class="st23" d="M225.4,365.8c-5.8,30-13.8,59.6-24,88.3c8.2-29.3,14.2-59.2,17.8-89.2L225.4,365.8z"/>
		<path class="st23" d="M215.7,291.3c-3.9,13.2-7.8,26.3-9.6,39.8c-0.9,6.7-1.3,13.6-0.8,20.4c0.4,6.8,1.6,13.6,3.9,20.1
			c-2.7-6.3-4.5-13.1-5.4-20c-0.9-6.9-1.1-13.9-0.7-20.8c0.8-13.9,3.8-27.6,6.7-41L215.7,291.3z"/>
		<path class="st23" d="M694.6,276.9c4,13.5,2.8,28.2-3,40.5c4.4-12.8,3.8-27-1.2-39L694.6,276.9z"/>
		<path class="st23" d="M694.8,275.3c-0.9,4.8-2.6,9.5-5,13.7c-2.3,4.3-5.3,8.2-8.7,11.6c-3.4,3.4-7.3,6.3-11.6,8.6
			c-4.2,2.3-8.8,3.9-13.5,4.7c4.7-1,9.1-2.8,13.2-5.2c4.1-2.4,7.8-5.4,11-8.9c3.2-3.5,6-7.4,8.1-11.5c2.1-4.2,3.6-8.7,4.2-13.3
			L694.8,275.3z"/>
		<path class="st23" d="M709.1,299.6c-1.5,28.6-1,57.4,1.4,86c-3.5-28.5-5-57.3-4.5-86.1L709.1,299.6z"/>
		<path class="st23" d="M723.2,358.5c-1,12-1.9,23.9-2.2,35.8c-0.3,11.9,0.1,23.9,1.9,35.7c1.8,11.8,5.1,23.4,10.1,34.2
			c5.1,10.8,12,20.8,21,28.8c-9.2-7.8-16.4-17.7-21.7-28.5c-5.3-10.8-8.9-22.4-11-34.3c-2.1-11.9-2.8-24-2.7-36
			c0-12,0.7-24.1,1.4-36L723.2,358.5z"/>
		<path class="st23" d="M281,301.8c0,0-21.5,33.3-27.3,73.6c0,0-1.8-42.1,5.1-65.1c0,0-11.3,9.4-15,36.3c0,0-5-20.6-2.5-48.8
			c0,0-15.8,25.4-18.5,55.1c0,0-20.4-79.7,3.6-125.4l7,13.9l7.9,23.6l20.2,19.1l22.9,8.5L281,301.8z"/>
		<path class="st24" d="M228.9,239.7c0,0-10.9,29.7-7.3,69.9c0,0,11.1-19.5,22.2-28c0,0,1.2,29.6,1.6,36.8c0,0,10.3-22.1,22-26.6
			c0,0-3.2,15.2-4.2,26.6c0,0,10.5-19.8,19.6-26.6c9.1-6.8-21.3-36.5-21.3-36.5l-26.7-15.5H228.9z"/>
		<path class="st23" d="M240.3,524.2c-0.2,0-0.4-0.1-0.6-0.1c-1.5-12.7-4.4-36.6-4.9-44.5c0,0-8.3,20.6-9.1,43.8
			c-0.2,0-0.4,0-0.5,0.1c-2.6-37.8-13-188.6-15.6-210.2l14,62.1c0,0,5.2-34.1,11.2-52.1c0,0,3.9,28.7,9.1,37.6c0,0,2.9-12.7,6.1-28
			l1.5,51.4l8.5-18.2C259.7,367.5,237.7,459.2,240.3,524.2z"/>
		<path class="st23" d="M218.2,372.4l7.2,107l8.5-25.4l3.2,21.7c0,0,6.2-65.2,16-88.8l-8.3,8.5l3.6-34.9l-7.3,20.6
			c0,0-5.8-29.3-6.4-36.5c0,0-7.8,22.6-9.1,43C225.7,387.5,221.4,377,218.2,372.4z"/>
		<path class="st23" d="M226.4,454.1l-4-61.1l7.3,12.7c0,0,2.6-25,3-35.5l7.9,36.9l6.3-9.5c0,0-10.1,35.7-9.5,52.9l-5.2-20.8
			L226.4,454.1z"/>
		<path class="st23" d="M773.9,313.3c-2.5,21.5-12.9,171.4-15.6,210.3c-0.2,0-0.4-0.1-0.5-0.1c-1-23-9.1-43.9-9.1-43.9
			c-0.5,7.9-3.4,31.7-4.9,44.4c-0.2,0-0.4,0.1-0.6,0.1c2.5-65-19.4-156.6-19.7-157.9l8.5,18.2l1.5-51.4c3.2,15.3,6.1,28,6.1,28
			c5.2-8.9,9.1-37.6,9.1-37.6c6.1,18,11.2,52.1,11.2,52.1L773.9,313.3z"/>
		<path class="st23" d="M765.2,372.4l-7.2,107l-8.5-25.4l-3.2,21.7c0,0-6.2-65.2-16-88.8l8.3,8.5l-3.6-34.9l7.3,20.6
			c0,0,5.8-29.3,6.4-36.5c0,0,7.8,22.6,9.1,43C757.7,387.5,762,377,765.2,372.4z"/>
		<path class="st23" d="M757,454.1l4-61.1l-7.3,12.7c0,0-2.6-25-3-35.5l-7.9,36.9l-6.3-9.5c0,0,10.1,35.7,9.5,52.9l5.2-20.8
			L757,454.1z"/>
		<path class="st23" d="M600.2,298.9c-26.5,8.1-55.5,12.3-84.3,12.7c-28.9,0.4-57.8-3.1-84.1-10.3c26.9,6.3,55.7,8.6,83.9,7.2
			c28.2-1.4,55.8-6.5,80.2-15.1L600.2,298.9z"/>
		<path class="st23" d="M425.5,300.1c-9.1,2.4-17.4,5.8-26.4,8.6c-4.5,1.4-9.2,2.6-14.2,3.5c-4.9,0.9-10.2,1.3-15.4,1.1
			c-5.2-0.2-10.3-1.1-14.7-2.7c-2.2-0.8-4.2-1.8-5.8-3c-1.6-1.2-2.8-2.5-3.7-3.9c-1.7-2.8-2-5.7-2.5-8.6c-0.5-2.9-1-5.8-3.1-8.4
			c2.2,2.6,2.9,5.5,3.5,8.4c0.6,2.9,1.1,5.7,2.8,8.4c0.9,1.3,2.1,2.6,3.7,3.7c1.6,1.1,3.5,2,5.6,2.7c4.3,1.5,9.2,2.2,14.2,2.4
			c5,0.1,10-0.4,14.7-1.3c4.7-0.9,9.3-2.2,13.6-3.6c8.7-2.9,16.9-6.4,26.2-9L425.5,300.1z"/>
		<path class="st23" d="M343.3,95.2c0-17.2,7.3,7.9,19.2-3.3c-10.4,12.6-15-12.5-13,2.9L343.3,95.2z"/>
		<path class="st23" d="M636.6,58.6c-15.8-19.2-38.3-33.4-63.3-39.3c25.3,3.9,49.6,16.3,67.9,35.2L636.6,58.6z"/>
		<path class="st23" d="M557.3,48.1c-15.2-14.5-34.9-24.8-56.1-28.9c21.5,2.1,42.7,10.4,60.2,24.2L557.3,48.1z"/>
		<polygon class="st23" points="515.4,50.2 478.4,19.6 519,45.2 		"/>
		<path class="st23" d="M386.5,64.8c-2.2-17.3,3.8,6.9,15.3-5c-9.9,13.2-13.1-11.2-9.2,3.8L386.5,64.8z"/>
		<path class="st23" d="M405.6,86.7c5.8-18.2,32.3-48.9,48.8-56.6c-15.5,9.5-39.5,41.2-42.8,58.2L405.6,86.7z"/>
		<path class="st23" d="M737.4,199.5c0.2-1.3,0.3-2.6,0.5-3.8c5.1-0.1,10.2,0.9,14.9,3c9.2,4,16.7,12,20.1,21.6
			c-2.8-9.9-9.9-18.6-19.3-23.4c-4.8-2.4-10-3.8-15.4-4.1c0.1-1.7,0.3-3.5,0.4-5.2c0.5-10.5-0.1-20.9-1.7-31.2
			c2.2-23.7-0.1-47.7-6.6-70.4c4.5,19.2,5.8,38.9,4.2,58.4c-2.8-11.4-6.9-22.4-12.2-32.7c1.2-12.7-2.5,0.1-10.7-18
			c-9.2-20.3-11-53.7-29.3-66.2c16,11.7,15.9,43.2,24.4,60.9c-14.1-19.3-21.7-50.2-50.6-60.1c0,0,23.1,22.2,29,35.3
			c0,0-33.6-37.8-67.2-43.5c0,0,16.8,28.5,17.4,34.7c0,0-35.3-32.4-90-34.7c0,0,31.5,24.8,34.6,32.2c0,0-36.5-26.5-85.6-25.9
			c0,0,15.7,11.1,20.2,18.5c0,0-29.6-16-56.7-16c0,0-4.3,5.1-11.5,13.4c-5.1,0.6-10.5,2.2-15.6,5.2c2.7-7.6,5.4-15.2,8-22.7
			c-4,8.5-8,17-12.1,25.5c-2.2,1.7-4.3,3.8-6.3,6.2c0.3-0.9,0.6-1.6,0.9-2.2c0,0-32.7-15.9-34,6.9c0,0-14.3,23.3-14.7,28.6
			c-1.4-0.9-3.2-1.9-5.2-2.9c-0.6-2,12-19.9,11.8-22c0,0-0.8,1.8-2,4.8c-8.1-3.2-31,11.6-32.9,24.5c0,0-1.9,5.9-3.3,10.8
			c-3.1-5.2,6.9-28.1,7.2-35.8c0,0-27.9,22.3-47.5,39.7c-3.5,3.1-8.2,7.5-13.3,13.1c-9.8,5-18.7,11.8-24,21.3
			c1.6-10.1,5.1-19.9,10.3-28.7c8-13.6,33.1-40.6,47.3-47.7c-14.5,6.6-40,33.3-48.6,46.9c-7.3,11.5-11.7,24.9-12.7,38.6
			c-0.2,0.7-0.4,1.4-0.6,2.2c0,0-1.2-22,3.7-33.7c0-0.1,0.1-0.1,0.1-0.1c-0.4,0.6-22.7,32.5-33,70.3c0-1.4,0.1-2.8,0.2-4.2
			c0.2-0.2,0.3-0.5,0.4-0.7c-0.2,0.2-0.3,0.4-0.4,0.6c0.8-15,3.8-30.1,9-44.4c-7.1,16-11.6,33.3-13.2,50.9c-3.5,6.4-6,13.4-7.2,20.6
			c-1,5.9-1.2,12-0.6,18c-6.8,13.3-11.2,29.6-11.2,49.8c0,92.5,12.5,228.7,13.8,242.7c1.6-0.3,3.1-0.6,4.7-0.8c0.2,0,0.4,0,0.5-0.1
			c5-0.5,9.7-0.2,14.1,0.7c0.2,0,0.4,0.1,0.6,0.1c1.5,0.3,2.9,0.7,4.3,1.1c0,0,1.4-124.6,36.5-223.5c7.6,2.5,15.5,4.1,23.6,4.7
			c1.1,0.1,2.3,0.1,3.4,0.2c0.1,0,0.1,0,0.2,0c0.5,0,0.9,0,1.4,0c0.1,0,0.3,0,0.4,0c0.9,0,1.8,0,2.7,0c0.3,0,0.7,0,1,0
			c1.2,0,2.3-0.1,3.5-0.1c37.1-2,119.2-6,165.9-5.1c49.6,1,158.5,9.9,211.2-19.2c4.6,10.9,8.7,22.3,12.4,33.9
			c30.4,96.2,31.7,209,31.7,209c1.6-0.5,3.2-0.9,4.9-1.2c0.2,0,0.4-0.1,0.6-0.1c4.3-0.8,9-1,14-0.4c0.2,0,0.4,0,0.5,0.1
			c1.3,0.2,2.6,0.4,4,0.7c1.3-14,13.8-150.3,13.8-242.7C776.1,240.4,758.2,215.1,737.4,199.5z M734.2,197.2
			c-0.5-0.4-1.1-0.7-1.6-1.1c0.6-0.1,1.2-0.2,1.8-0.2C734.3,196.3,734.3,196.8,734.2,197.2z M735.5,187.3c-0.2,1.8-0.4,3.6-0.6,5.4
			c-1.1,0-2.2,0.1-3.3,0.2c0.1-2.3,0.2-4.6,0.2-6.9c1.7-6.8,3-13.6,4-20.5C736.2,172.8,736.1,180.1,735.5,187.3z M722.2,111.6
			c5.6,12,9.5,24.7,11.7,37.7c-0.6,5.5-1.4,10.9-2.5,16.3c-1-17.7-4.1-34.2-9.7-49.1C721.9,114.6,722.1,113,722.2,111.6z
			 M718.3,108.4c-0.5-1.1-1-2.2-1.6-3.3C718.1,105.6,718.7,105.1,718.3,108.4z M219.9,214c0.8-6.8,2.7-13.4,5.6-19.6
			c-0.5,6.7-0.7,13.4-0.4,20.1c-0.2,2-0.3,4-0.4,6c-1.7,2.4-3.4,5-4.9,7.6C219.3,223.4,219.4,218.7,219.9,214z"/>
	</g>
	<path class="st0" d="M701.5,356.7"/>
</g>
<path class="st25" d="M650.9,487.8c-99.8,0-130,12.9-139.3,15c-9.9,2.3-33.9,2.3-43.8,0c-9.2-2.1-39.5-15-139.3-15
	c-80.5,0-111.8,16.8-111.8,16.8v26.5c0,0,16.4,5.4,20.8,23.5c4.4,18.1,9.8,52.6,25.7,60.8C287.8,628,401,635.3,430,616
	c29-19.3,30-74.2,43.5-80c11-4.7,21.5-4.7,32.5,0c13.5,5.8,14.4,60.8,43.5,80c29,19.3,142.2,12,166.7-0.6
	c15.9-8.2,21.3-42.7,25.7-60.8c4.4-18.1,20.8-23.5,20.8-23.5l1.4-26.7C764.1,504.5,731.4,487.8,650.9,487.8z M418.9,607.8
	c-25,16.6-122.3,10.3-143.3-0.5c-13.7-7.1-18.3-36.7-22.1-52.3c-3.8-15.5-9.8-43.7,4.5-48.4c19.6-6.5,34-9,73.8-9
	c85.8,0,115.9,11.1,120.9,17.2C458,521.6,443.8,591.3,418.9,607.8z M726.1,555.1c-3.8,15.5-8.4,45.2-22.1,52.3
	c-21,10.9-118.4,17.1-143.3,0.5s-39.1-86.2-33.6-93c5-6.2,35.1-17.2,120.9-17.2c39.7,0,54.2,2.5,73.8,9
	C735.8,511.4,729.8,539.5,726.1,555.1z"/>
<path class="st0" d="M305.9,816.4"/>
<path class="st0" d="M585,612.4c30.4,2.6,60.4,0.2,90.6-3.2"/>
<path class="st0" d="M303.7,609c21.9,3.6,44,5.1,66.2,4.8c14-0.2,27.8-2,41.6-4.2"/>
<path class="st0" d="M-6.6-1250.6"/>
<path class="st0" d="M334.4,853.8"/>
</svg>
