<?xml version="1.0" encoding="utf-8"?>
<!-- Generator: Adobe Illustrator 24.1.1, SVG Export Plug-In . SVG Version: 6.00 Build 0)  -->
<svg version="1.1" xmlns="http://www.w3.org/2000/svg" xmlns:xlink="http://www.w3.org/1999/xlink" x="0px" y="0px"
	 viewBox="0 0 4558 3068" style="enable-background:new 0 0 4558 3068;" xml:space="preserve">
<style type="text/css">
	.st0{fill:#E2EBFF;}
	.st1{fill:#FDD0B1;}
	.st2{fill:#E5785C;}
	.st3{fill:#3F4040;}
	.st4{fill:url(#SVGID_1_);}
	.st5{fill:#889E3C;}
	.st6{fill:#824441;}
	.st7{fill:#FCCFB0;}
	.st8{fill:#294455;}
	.st9{fill:#6A7592;}
	.st10{fill:#374068;}
	.st11{fill:#FFFFFF;}
	.st12{fill:#EB795F;}
	.st13{opacity:0.19;fill:#3F3E3F;}
	.st14{fill:#FCFCFA;}
	.st15{opacity:0.14;}
	.st16{fill:#6D2132;}
	.st17{fill:url(#SVGID_2_);}
	.st18{opacity:0.25;fill:#FFFFFF;}
	.st19{fill:url(#SVGID_3_);}
	.st20{opacity:0.19;fill:#3F4040;}
	.st21{opacity:0.66;fill:#3F4040;}
	.st22{fill:#EA785F;}
	.st23{fill:#D2624E;}
	.st24{fill:#3F3E3F;}
	.st25{fill:#5B5B5B;}
	.st26{fill:#312DA4;}
	.st27{fill:url(#SVGID_4_);}
	.st28{fill:#401287;}
	.st29{fill:url(#SVGID_5_);}
	.st30{font-family:'Gilroy-Bold';}
	.st31{font-size:227.5087px;}
	.st32{fill:#2A1063;}
	.st33{fill:url(#SVGID_6_);}
</style>
<g id="Layer_2">
</g>
<g id="Layer_3">
	<path class="st0" d="M2320,2997c0,0,503.1-15,853.3-429.3c0,0,291.5-266.5,530.3-647.7c259.4-414,133.6-838.6-229.7-901.6
		C2486,847,2647.9,695.1,2303.6,273.5s-1075.5-181.6-1346-32.8S430,965.1,488.5,1438.3S1658.3,2924.5,2320,2997z"/>
	<path d="M2138.8,721.5c2.1-1,4.1-2.1,7.5-3.8c-1,4-2.7,7.2-2.2,10.1c0.4,2.7,2.9,6.7,5,7.1c3.4,0.7,7-0.9,5.9-6.5
		c-0.7-3.4,0-7.3,1-10.7c4.8-16.3,9.9-32.5,14.8-48.9c2.1-7.2,3.8-14.5,5.6-21.7c-1-0.7-2-1.4-3-2c-3.4,2.7-8.9,4.8-9.8,8.2
		c-2.6,9-3.2,18.6-4.5,27.8c-5.3-0.8-8.6-1.3-13.7-2.1c9.1,9.4,9.7,15.3,3.9,25.3c-3.4,5.8-6.8,11.6-10.2,17.4
		c-1.1,0.2-2.5,0-3.2,0.5c-5,4.1-11.7,8.5-16.2,2.9c-3.1-3.9-1.4-11.8-1.7-17.9c0-1,0.9-2,1.5-2.9c6.2-8.2,12.4-16.3,18.5-24.3
		c-0.7,0-2.6-0.6-3.8,0.1c-15.3,7.8-25.3,20-29,36.9c-1.4,6.5,0.1,13.4,6,16.1c4.7,2.1,11.7,2.1,16.4,0.1
		C2132.2,731.2,2135.2,725.5,2138.8,721.5z M2130.2,898.2c1.9-3.8,3.7-7.7,7-14.2c9.5,24,18.3,46.3,27.2,68.6
		c0.8-0.2,1.7-0.3,2.5-0.5c8.6-27.9,17.1-55.9,25.7-83.9c-7.5-2.4-8.6-1.7-8.5,5.6c0,2.5,0.3,5.1-0.4,7.5
		c-3.9,13.9-7.9,27.8-12.2,41.5c-0.7,2.1-3.2,3.6-5.5,6.1c-1.2-2.8-1.7-4-2.2-5.3c-6.6-16.9-13.1-33.8-19.8-50.7
		c-3-7.6-8.3-7.4-11.9-5.8c-0.6,8-1.1,13.7-1.5,19.5c-0.2,3.9-0.2,7.8-0.3,11.7c-1.3,0.9-3.3,1.5-3.7,2.6c-2,6.1-3.2,12.3-5.2,18.4
		c-3.6,10.9-7.5,21.6-11.4,32.7c3,0,7.6,0,12.6,0c-4.7-9.4-1.3-17.6,0.8-25.8C2125.9,917.1,2128,907.6,2130.2,898.2z M1262.6,1700.5
		c0.2,3.8,0.2,7.7,0.7,11.4c0.3,2.3,1,5.1,2.5,6.5c1.1,1,4.8,0.8,5.9-0.3c1.6-1.5,2.2-4.3,2.7-6.7c0.7-4,0.4-8.3,1.5-12.1
		c6.2-21.5,12.7-42.8,19-64.2c0.3-1.2-0.3-2.6-0.5-4.5c-5.3,0.6-10.1,1.2-14.4,1.7c1.3,3.7,3.5,6.8,3.1,9.4
		c-1.1,6.9-3.1,13.6-5.3,20.2c-0.4,1.2-4.3,2.7-5,2.1c-7.7-6-14.7-2.5-21.8,1.1c-15,7.7-23.9,20.2-26.6,36.5
		c-1.9,11.4,9,22.1,17.9,17.2c7.8-4.3,13.7-12.2,20.4-18.6L1262.6,1700.5z M2826.9,1264c0.1-1.3,0.3-2.6,0.4-3.8
		c-4.9-0.5-9.9-1.4-14.8-1.5c-413-0.1-826-0.1-1239-0.1c-2.8,0-5.7-0.4-8.4,0.2c-2.3,0.5-4.3,2.1-6.5,3.3c0.2,0.6,0.5,1.2,0.7,1.9
		C1981.8,1264,2404.4,1264,2826.9,1264z M1477.5,1686.9c-0.2,1.3-0.4,2.6-0.6,3.8c4.4,0.6,8.8,1.6,13.2,1.6
		c413.8,0.1,827.7,0.1,1241.5,0.1c3.1,0,6.2,0.3,9.2-0.4c1.6-0.3,2.9-2.2,4.4-3.4c-0.3-0.6-0.6-1.2-0.9-1.8
		C2322.2,1686.9,1899.8,1686.9,1477.5,1686.9z M2319.8,1281.6c-0.2-0.9-0.3-1.8-0.5-2.7c-1.5-0.4-3-1.3-4.5-1.3
		c-28.9-0.1-57.8-0.3-86.7,0.3c-3.1,0.1-7.9,4.6-8.9,7.9c-5.1,18.3-9.3,36.9-13.8,55.4c-4.4,18-8.9,36.1-13.8,56.1
		c-3.1-3.2-5.2-4.9-6.5-7c-4.3-6.8-8.5-13.8-12.6-20.8c-5.9-10-9.1-10.6-18.3-3.3c-2.3,1.8-4.4,4-7.7,7.2c3.4,0.5,5.9,1.6,6.8,0.9
		c5.8-4.9,8.1-0.9,10.8,3.6c6.2,10.3,12.5,20.5,19,30.5c1.5,2.3,5.3,5.8,6.1,5.3c2.9-1.6,5.9-4.3,7-7.3c2.3-6.3,3.3-13,4.9-19.5
		c7.4-30.9,15-61.9,22.3-92.8c1.7-7.4,5.3-10.5,13.4-10.4c24.4,0.5,48.8,0.3,73.3,0.1C2313.3,1283.8,2316.5,1282.4,2319.8,1281.6z
		 M3183.9,1691.5c0.5,0.7,0.9,1.5,1.4,2.2c1.8-0.3,4.1-0.1,5.2-1.1c5.7-5.3,8.4-2.4,11.4,3.1c5.8,10.8,12.1,21.4,18.4,31.8
		c1.3,2.1,4,4.7,5.8,4.5c2-0.2,4.6-3,5.4-5.2c2.6-7.6,4.7-15.4,6.6-23.3c7.6-31.5,15.2-63,22.4-94.6c1.7-7.2,5.3-9.4,12.4-9.3
		c23.6,0.3,47.2,0.2,70.7,0c3.6,0,7.1-1.6,10.7-2.4c-0.2-0.8-0.4-1.6-0.5-2.4c-1.6-0.4-3.1-1.1-4.7-1.1c-28.1-0.1-56.2-0.3-84.2,0.3
		c-3.2,0.1-8.1,4.5-9,7.8c-5,18.3-9,36.9-13.5,55.4c-4.5,18.9-9.2,37.7-14.3,58.6c-3-3.8-5.3-6.1-6.9-8.8
		c-4.5-7.7-8.3-15.9-13.3-23.2c-1.7-2.5-7.4-5.4-9.1-4.4C3193.3,1682.3,3188.8,1687.2,3183.9,1691.5z M2109,1824.8
		c-0.9-0.2-1.9-0.4-2.8-0.6c-3.4-7-7-13.9-10.3-20.9c-6.9-14.8-8.4-15.5-23-8.1c-2.7,1.3-4.6,4.2-6.9,6.3c0.6,0.7,1.2,1.4,1.8,2.1
		c1.3-0.2,2.8-0.1,3.8-0.8c6.4-4.5,10.1-3.2,13.3,4.3c4.6,10.7,10.3,21,15.9,31.3c1.3,2.3,4.6,4.8,6.8,4.7c2-0.1,4.9-3.5,5.5-5.9
		c3.3-12.1,5.8-24.4,8.9-36.6c6.6-26.6,13.8-53,19.6-79.7c1.8-8.2,5.3-9.5,12.4-9.4c24.4,0.3,48.9,0.2,73.3,0.1
		c3.3,0,6.7-0.7,10-1.1c0-0.9,0.1-1.8,0.1-2.6c-3-0.8-5.9-2.3-8.9-2.3c-26.7-0.2-53.3,0-80-0.2c-7.1,0-10.8,3.3-12.3,10
		c-2.4,11.5-5,22.9-7.7,34.3c-5.1,21.5-10.3,43-15.7,64.4C2112,1817.6,2110.4,1821.1,2109,1824.8z M2001.2,1126.9
		c-8.9-5.3-12.6-4.1-15.6,3.6c-1.2,3-3.4,5.8-5.9,7.9c-7.6,6.2-15.4,11.9-23.3,17.7c-1.9,1.4-4.1,2.3-6.1,3.4
		c-0.7-0.4-1.5-0.9-2.2-1.3c3-9.1,6.1-18.1,9-27.2c0.5-1.7,0.8-5.2,0.6-5.2c-3.4-0.8-7-1.6-10.4-1.5c-1.3,0-3.4,2-3.8,3.5
		c-2.8,11.9-4.6,23.9-7.9,35.7c-4.3,15.4-9.6,30.4-14.5,45.8c5,0,11.6,0,17.7,0c-5.8-15.6,4.4-27.3,7.8-40.7
		c6.7,7.3,12.3,14.9,17.4,22.7c3.6,5.5,7.1,11.4-0.5,17.9c10.1,0,18.7,0,27.6,0c-4.3-4.6-8.3-8.1-11.4-12.4
		c-6.4-8.9-11.9-18.4-18.4-27.1c-4.7-6.3-4.2-10,2.5-14.6C1976.5,1146.3,1988.4,1136.7,2001.2,1126.9z M1714.1,650.8
		c-7,0-13.4,0-19.9,0c1.4,8.8-21.5,30.7-37.4,34.4c4.4-12.4,8.3-23.5,12.1-34.3c-5.5,0-12.2,0-18,0c5.3,16-4.4,28.6-7.3,42.2
		c-2.9,14-8.3,27.6-12.7,41.4c9.3,3.7,13.8,2.3,14.9-3.5c2.3-12.4,5.5-24.7,8.3-37.1c1-0.1,2-0.2,3-0.3c4.6,6.9,9.5,13.6,13.9,20.6
		c3.4,5.4,9.2,10.4,4.8,18.1c-0.3,0.6,1,3.2,1.7,3.2c6.6,0.6,13.5,2.4,19.7-1.1c-9.6-14.3-18.8-27.5-27.5-41.2
		c-1.4-2.3-1.6-7.9-0.1-9.1C1683.8,672.9,1698.5,662.4,1714.1,650.8z M1841.7,1636.8c4.6,0,9.3,0,12.5,0
		c3.8-14.3,7.5-27.9,11.1-41.4c0.9-0.1,1.8-0.2,2.7-0.3c6.6,13.4,22.2,22.4,19,41.2c6.8,0,13.8,0,21.1,0c-9.9-14.8-19-28.5-28.2-42
		c-3-4.4-2.5-7,2.1-10.2c14.3-10.2,28.2-20.9,42.8-31.9c-7,0-13.5,0-20.1,0c1.9,9.2-18,28.5-37.2,35.2c4.4-12.8,8.2-23.9,12.1-35.2
		c-5.3,0-12,0-18.2,0c0.8,4.5,3,8.7,2,12.1C1856.6,1588.1,1849.3,1611.8,1841.7,1636.8z M1164,869c-9.8-3.5-12.7-1.9-18.3,6.4
		c-7.8,11.6-21.7,19-33,28.2c-1-0.7-2-1.4-3-2.1c3.4-10.9,6.8-21.8,10.1-32.6c-11-4.6-13.9-2.9-14.4,8.1c-0.1,1.4-0.4,2.8-0.8,4.1
		c-2.4,8.3-4.8,16.7-7.3,24.9c-4.8,15.5-9.8,30.9-14.8,46.6c5,0,11.5,0,17.3,0c-5.2-15.8,5.2-27.6,8.3-41.3
		c6.4,7.1,11.5,14.4,16.4,21.7c4,6,8.2,12.1,0.7,19.3c9.9,0,18.5,0,27.5,0c-4.5-4.9-8.9-8.8-12.2-13.5c-6.2-8.6-11.5-17.9-17.8-26.5
		c-4.6-6.2-3.5-9.8,2.7-14.1C1138,889.2,1150.1,879.5,1164,869z M2936.5,1632.1c1.1,3.9,3.1,7.2,2.6,10.2c-1,6.6-3,13.1-5.1,19.4
		c-0.4,1.3-4.3,2.9-5,2.3c-8-6.4-15.5-2.4-22.5,1.4c-14.7,7.9-23.5,20.4-26.1,36.9c-1.1,7.2,2.4,13.5,8.5,15.9
		c4.1,1.6,10.5,0.1,14.6-2.2c6.1-3.5,11-8.9,17.8-14.8c-0.8,4.1-1.7,6.9-1.7,9.6c0,2.6,0.5,5.5,2,7.5c0.8,1,4.8,1.1,5.9,0.1
		c1.6-1.6,2.4-4.4,2.8-6.9c0.7-3.8,0.3-7.8,1.3-11.4c6.2-21.5,12.8-42.8,19.1-64.2c0.4-1.4-0.2-3.1-0.4-5.1
		C2945.2,1631.2,2940.6,1631.7,2936.5,1632.1z M1708.3,934c-1.2,5.4-2.9,8.7-2.4,11.6c0.4,2.6,3.2,4.8,5,7.1
		c2.1-2.4,5.3-4.5,6.2-7.2c1.2-3.7-0.2-8.3,0.9-12.1c6.2-21.5,12.8-42.9,19.1-64.3c0.4-1.4-0.2-3.1-0.4-5.1c-5.2,0.6-9.8,1.1-14,1.5
		c1.2,3.8,3.3,6.9,2.9,9.5c-1.1,6.9-3.1,13.6-5.3,20.3c-0.4,1.2-4.3,2.6-5.1,2c-7.1-5.3-13.3-2.6-20.3,0.6
		c-15.6,7.2-24,19.7-27.9,35.6c-1.8,7.6,1.3,14.1,7.9,18.1c5.8,3.6,11.5,1.2,16.3-2.7C1696.3,944.8,1701.2,940.3,1708.3,934z
		 M2382,896.8c-6.8-0.8-12.4-3.1-16.7-1.7c-17.7,6.1-30,18-33.8,37c-1.5,7.5-0.8,15,6.5,19.3c7.5,4.4,13.9,0.4,19.7-4.7
		c3.6-3.2,7.1-6.4,12.1-11c0,5.2-0.6,8.3,0.2,11.1c0.6,2.2,2.8,3.9,4.3,5.9c1.8-2,4.2-3.7,5.2-6.1c1-2.4,0.1-5.6,0.9-8.1
		c4.6-15.8,9.6-31.5,14.3-47.3c2.5-8.4,4.4-16.9,7-27c-6.4,0.5-10.8,0.9-16.1,1.3C2391.6,873,2388.7,888.6,2382,896.8z
		 M2427.7,1209.5c-4.6-2.4-7.9-3.4-10.3-5.4c-2.7-2.3-5.1-5.3-6.8-8.4c-7-12.3-2.7-28.2,8.5-32.2c12.1-4.4,18.9-1,24.9,12.3
		c5,11.1,1.7,25.4-6.9,30.1c-1.7,0.9-3.3,2-5,3c9.5,2.9,16.1-0.9,21.2-7.6c6.1-8,5.9-17.9,0.1-26.8c-2.4-3.7-4.8-7.5-7.2-11.2
		c4.6-0.6,9.4-0.6,13.8-1.9c2.5-0.8,4.4-3.7,6.6-5.6c-2.2-1.5-4.3-4.3-6.5-4.4c-10.9-0.5-21.9,0.5-32.8-0.4
		c-21.5-1.7-39,20.3-27.5,43.6C2404.7,1204.6,2416.4,1211.8,2427.7,1209.5z M2103.4,1403.4c10.1,2.1,17-2,21.9-9.3
		c5.7-8.7,4.7-17.6-0.8-26.1c-2.3-3.6-4.8-7-7.2-10.5c4.6-0.7,9.3-0.9,13.6-2.2c2.6-0.8,4.7-3.4,7-5.2c-2.3-1.7-4.5-4.6-6.9-4.8
		c-10.6-0.5-21.4,0.5-32-0.4c-22-1.9-39.2,20.4-28.1,43.2c5.1,10.5,17.4,18.1,25.5,15.5c-4.7-4.4-10.6-8.3-14.2-13.7
		c-7.5-11.3-3.4-27.9,6.8-32.2c15.5-6.5,24.9,1.8,28,18.7C2119.1,1387.8,2115.7,1397.8,2103.4,1403.4z M2360.6,1591.6
		c0.1-0.8,0.3-1.6,0.4-2.4c5.1,0,10.2,0.5,15.2-0.2c2.7-0.4,5.1-2.8,7.6-4.2c-2.4-2-4.8-5.6-7.3-5.7c-11.7-0.6-23.5-0.6-35.3-0.2
		c-8.7,0.3-16.4,3.4-21.5,11c-7.3,10.9-7.1,25.9,0.4,36.3c7.6,10.6,22.7,16.2,35,13.2c12-3,19.1-11.8,19.9-22.9
		C2375.8,1604.8,2368.5,1598.2,2360.6,1591.6z M1459.3,952.4c-2.2-24,9.9-43.9,14.2-65.5c1.1-0.2,2.1-0.4,3.2-0.6
		c8.8,22.3,17.5,44.5,26.3,66.8c0.8-0.1,1.6-0.2,2.4-0.3c4.5-15.1,8.7-30.4,13.5-45.4c3.7-11.6,8-23.1,11.9-34.7
		c0.5-1.4,1-4,0.3-4.4c-1.4-1-3.7-1.6-5.3-1.2c-1.4,0.4-3.1,2.3-3.4,3.8c-4.3,17.5-8.2,35-12.5,52.4c-0.5,2-2.9,3.4-5.1,5.9
		c-1.2-2.8-2-4.3-2.5-5.8c-6.6-16.9-13.2-33.9-19.8-50.7c-2.9-7.4-8.1-7.1-11.7-5.4c-0.6,7.8-0.6,13.7-1.6,19.4
		c-1.2,6.5-3,12.9-5,19.2c-4.9,15.4-10,30.8-15.1,46.4C1451.9,952.4,1456.5,952.4,1459.3,952.4z M2032,1785.3
		c0.2-0.8,0.3-1.5,0.5-2.3c4.8,0,9.7,0.6,14.5-0.2c2.9-0.5,5.4-2.9,8.2-4.5c-2.5-1.9-5-5.3-7.6-5.5c-11.5-0.6-23-0.6-34.5-0.2
		c-9,0.3-16.9,3.4-22.1,11.5c-6.9,10.8-6.7,25.4,0.6,35.6c7.6,10.6,22.6,16.3,35,13.3c12-2.9,19.2-11.8,20-22.9
		C2047.2,1798.6,2039.8,1791.9,2032,1785.3z M3139.4,1719.6c9.1,2,17.3-1.4,22.1-8.9c9.3-14.7,1.7-25.8-10.8-38.1
		c7-0.5,11.6-0.2,15.8-1.3c2.9-0.7,7.1-3,7.7-5.2c1.3-5.6-3.8-5-7.3-5c-10.4-0.1-20.8,0.7-31.1-0.2c-22.1-2-39.3,20.7-28.2,43.1
		c5.1,10.2,17.3,18,26.8,15.4c-1.3-1.1-2.2-2-3.3-2.5c-13.1-6.4-18.8-19-14.7-32.9c2.2-7.4,7.9-10.7,14.8-12
		c6.4-1.2,12,0.2,16.3,5.9C3158.4,1692.2,3155.9,1706.8,3139.4,1719.6z M2031.3,650.7c4.1,9.5-5.2,50.9-14.3,62.9
		c-7.2-18.5-14.2-36.4-21.1-54.3c-3.9-10-8.7-12-19.3-6.8c10.2,4.2,6.9,12.2,5,18.8c-4.9,17.4-10.6,34.5-16.1,51.6
		c-1.3,4-3.1,7.9-4.7,12c9.5,1.7,9.6,1.5,9.3-6.6c-0.1-3,0-6.2,0.8-9.1c3.8-13.6,7.6-27.1,11.8-40.6c1-3.1,3.3-5.7,5.9-9.9
		c8.3,21.6,15.7,41.1,23.3,60.6c0.7,1.8,2.5,3.1,3.8,4.6c1.3-1.3,3.2-2.4,3.7-4c3.3-10.9,5.8-22.1,9.6-32.9
		c5.4-15.4,5.4-32.8,18.2-46.3C2041.3,650.7,2036.5,650.7,2031.3,650.7z M1233.6,670c0.9-0.2,1.8-0.5,2.7-0.7
		c8.9,22.4,17.7,44.7,26.6,67.1c0.8-0.1,1.6-0.2,2.4-0.3c4.5-15.7,8.6-31.6,13.7-47.1c4.2-12.9,4.8-27.4,17.1-38.3
		c-6.5,0-11.5,0-17,0c5.7,9.8-6.8,56.9-15.6,60c-6.2-16.5-12.6-32.9-18.5-49.4c-4.2-11.8-8.1-13.8-19.4-9.9c2,3.7,6.5,8.1,5.7,11.2
		c-3.7,15.9-8.6,31.5-13.4,47.1c-2.6,8.4-5.8,16.5-8.8,24.8c0.5,0.7,1,1.5,1.5,2.2c2.8-1.3,7.7-2.2,8.1-4.1
		c2.4-10.1,3.2-20.7,5.6-30.8C1226.7,691,1230.4,680.6,1233.6,670z M1388.5,679.7c-2.3,0.2-4.9-0.4-6.8,0.6c-15.5,8-26.1,20-28.1,38
		c-0.7,6.5,0.9,12.4,7,16c6.2,3.6,12.1,1.3,17.2-2.5c4.6-3.4,8.6-7.5,12.9-11.4c5.8,15.7,5.8,15.7,9,13.7
		c8.6-30.3,16.5-58.2,25-87.9c-6.1,1.2-10,2-12.6,2.5c0,12.8-2.5,23.4-7.8,32.7c-3.3-0.8-5.8-1.4-6.4-1.5c0.9,6.4,3.9,12.9,1.9,17.1
		c-4.3,9.1-10.6,17.5-17.1,25.4c-3.5,4.2-9.2,7.2-15,3.2c-6.2-4.2-4.7-10.4-2.6-16C1369.6,697.5,1376.3,686.9,1388.5,679.7z
		 M1372,1238.2c-4.4-1.4-6.8-2.1-7.4-2.3c0.6,6.3,3.3,13.1,1.3,17.8c-3.8,8.7-9.8,16.7-16,24.1c-3.9,4.6-9.9,8.4-16.3,3.6
		c-5.9-4.4-4-10.5-1.9-16.1c4.5-12.2,11.6-22.3,25.3-29c-3.2-0.4-4.3-0.8-5.4-0.6c-16.7,2-35.5,29.6-31.2,45.9
		c2.1,8.2,9.9,12.9,17.4,9.2c7-3.5,13.1-8.9,20.4-14c0.2,3.6-0.3,7.5,0.8,10.8c2.2,6.2,6.2,3.7,7.7,0.4
		c7.9-27.9,15.8-55.8,24.4-85.8c-6.1,1.3-10.1,2.2-14.1,3c0.8,0.7,1.7,1.3,2.5,2C1376.9,1217.3,1374.5,1227.4,1372,1238.2z
		 M868.7,979.1c11.5,2.8,12,2.4,13.1-7.9c0.3-3.1,1-6.1,1.7-9.1c1.5-6.5,4.6-10.3,12.3-9.2c3.9,0.5,8.5-0.4,12.2-1.9
		c15.7-6.3,23.4-19.2,27.2-34.9c1.9-8.1,0.3-15.6-6.8-20.1c-7.6-4.9-14-0.2-21.7,6.3c4.6-0.6,7.5-1.9,9.2-1.1c3.3,1.6,7.8,4,8.4,6.9
		c2.9,13.4-6.9,33.6-19,39.3c-3.5,1.6-8.9,1.1-12.6-0.5c-1.7-0.7-2.7-6.9-1.6-9.6c4.2-10.5,9.3-20.7,14.1-31
		c0.3-0.7,0.7-1.3,1.4-2.4c-2-0.1-3.5-0.2-5-0.3c0.2-2.8,0.4-5.4,0.7-9.1c-5.4,1.4-9.8,2.5-14.2,3.6c0.8,0.6,1.7,1.2,2.5,1.9
		C886.3,926.8,876.7,952.5,868.7,979.1z M1566,1636.7c10,1.8,12.4,1.2,12.3-3.2c-0.3-12.9-0.4-25.8-1.5-38.6
		c-1.4-16-12.9-25-27.6-12.6c-3.5,3-5.4,3.1-7.5-1.5c-0.7-1.6-3.9-3.6-5.4-3.3c-4,1-7.8,3.2-9.6,4.1c1.9,4.9,4.5,8.7,4.7,12.6
		c0.5,13.9,0.2,27.8,0.2,42.1c10.3,3.6,12.1,1.9,10.9-9.8c-1-9.7-0.9-19.6-0.3-29.4c0.4-7.3,7.4-12.8,14.5-12.3
		c8,0.5,9.1,6.4,9.2,12.6C1566.1,1610.5,1566,1623.3,1566,1636.7z M1622.9,1157.9c-1-9.1-6.3-8.2-11.7-5.8c-6.6,2.8-1.5,5.9-0.1,9.1
		c0.7,1.7,0.6,3.9,0.6,5.8c0.1,9.3,0.3,18.5-0.1,27.8c-0.2,4.6-1.6,9.2-2.6,14.4c4.9,0,10.7,0,16.6,0c-5.8-14.5-4.3-28.4-2.4-42.2
		c1-7.3,8.1-9.1,14.4-9c6.8,0.1,8.4,5.6,8.5,11.4c0.2,9.8,0.4,19.7,0,29.5c-0.1,3.3-1.9,6.5-3.1,10.4c6.1,0,12.2,0,17.3,0
		c-1.1-4.8-2.7-8.9-2.9-13c-0.4-9.5,0.4-19.1-0.3-28.6c-1.4-18.3-15.9-23.2-26.4-13.5C1628.8,1155.6,1626.2,1156.3,1622.9,1157.9z
		 M2637.4,1142.7c1.2-1.4,1.7-2.2,2.4-2.8c8.2-8,17.3-9.7,25-4.7c7.9,5.1,11,15.6,5.6,25.4c-5.7,10.3-13,19.9-20.3,29.2
		c-5.1,6.4-11.4,11.9-17.3,17.8c1.3,1.1,1.7,1.7,2.2,1.7c14.6,0.3,29.2,1.1,43.7,0.4c6.8-0.4,7.7-6.5,6.8-11.6
		c-8.9,0.6-16.9,1.2-25,1.4c-2.9,0.1-5.8-1.1-8.6-1.8c1.3-2.8,2.2-6,4.1-8.5c7.8-10.2,17-19.5,23.6-30.3c8.7-14.1,3-29.6-11.3-35.8
		C2654.4,1117.2,2637.1,1127.4,2637.4,1142.7z M2400.4,1509.2c13.3-10.6,22.1-11.3,29.6-2.5c6.7,7.8,6.3,17.7,1.4,25.2
		c-8.5,12.9-19.2,24.3-28.9,36.4c-2.1,2.6-3.8,5.6-5.7,8.4c3.4,0.7,6.8,1.9,10.3,2c9,0.3,17.9,0.1,26.9,0.1
		c11.5-0.1,12.6-1.1,13.8-12c-11.7,0-23.6,0-37.3,0c4.9-5.6,9.2-10,12.7-14.8c6.9-9.4,14.3-18.6,19.9-28.7c5.4-9.6,2.9-19.3-4.5-26
		c-8.1-7.5-19.9-9.5-28.8-4C2404.5,1496.5,2398.7,1500.3,2400.4,1509.2z M2485.1,1081c2.3-1.7,4.1-3.2,6.1-4.5
		c9.9-6.2,24-2.7,25.8,7.2c1.2,6.8,0.6,14.7-1.8,21.1c-5.7,15.4-18.1,26-29.6,37.1c-2.2,2.1-4.2,4.6-6.2,6.9c0.3,0.8,0.6,1.5,1,2.3
		c12.8,0,25.5,0,38.3,0c11.4,0,13.3-2.1,13.5-12.5c-8.6,0.7-17.3,1.6-26.1,1.9c-2.9,0.1-5.9-1.6-8.9-2.5c1.5-2.5,2.8-5.2,4.5-7.5
		c8.4-11.3,17.4-22.2,25.2-33.9c5.5-8.3,4.1-17.3-2.4-24.9c-6.5-7.6-15.1-10.4-25-8.5C2490.7,1064.9,2484.4,1072.5,2485.1,1081z
		 M2553.1,1568.8c2.8-2,5.3-3.8,7.9-5.7c6.8-4.9,13.5-4.7,20.1,0.2c6.5,4.8,9,11.4,7.1,19.2c-1.2,4.8-2.7,10.1-5.7,13.8
		c-9.1,11.6-19.1,22.5-28.6,33.7c-1.3,1.5-1.9,3.6-2.8,5.4c2,0.8,3.9,2.2,5.9,2.2c11.5,0.2,23,0.3,34.5,0c8.3-0.2,10.9-4.5,9.4-12.1
		c-11.9,0-23.5,0-36.2,0c2.3-2.8,4.2-5.1,6.1-7.4c6.9-8.1,14.1-15.8,20.5-24.2c6.1-8,9.2-17.3,7-27.6c-2.2-10.1-13.5-17.9-24.9-17.1
		C2562,1550.1,2554.2,1557.5,2553.1,1568.8z M1087.6,649.7c-3.2-0.3-4.8-0.9-6.2-0.6c-16.6,3.3-22.2,21.9-10.6,35.3
		c6,7,12.8,13.4,18.4,20.6c7.5,9.6,5.7,21.2-3.3,27.2c-8.3,5.5-21.7,1.1-27.2-8.8c-1.3-2.4-3.2-4.5-6-8.4
		c-1.4,8.1-2.4,13.8-3.1,18.2c6.9,1.6,13.1,2.7,19.2,4.4c11.6,3.3,26.9-1.8,32.8-11.3c7.1-11.5,5.8-21.4-4.6-32.6
		c-5.7-6.1-12.6-11.5-17.1-18.4c-2.7-4.2-3.2-10.9-2.3-16.1C1078.1,656.1,1083.1,653.7,1087.6,649.7z M1671.8,1553
		c-0.3-0.9-0.6-1.8-0.8-2.7c-3.2,0.8-6.8,0.9-9.6,2.4c-13.3,7.1-14.9,22.1-4.1,34.1c6.7,7.5,13.8,14.7,19.8,22.8
		c4.9,6.6,2.9,16.5-3.1,22.2c-5.2,4.9-15.7,5.9-21.6,1c-4.9-4.2-8.7-9.7-13.9-15.6c-1.2,6.7-2.2,12.5-3.2,18.2
		c5.8,0.7,10.7,1.3,15.6,2c5.2,0.7,10.4,2.5,15.5,2.2c10.9-0.6,19-6.1,23.3-16.4c4-9.6,1.8-18.1-5.1-25.6
		c-6.5-7-13.3-13.6-19.6-20.8c-5-5.7-4.7-14.6,0.1-19.1C1667.2,1555.9,1669.6,1554.6,1671.8,1553z M2012.9,886
		c0.6-0.1,1.3-0.2,1.9-0.3c1.1-5.8,2.2-11.6,3.1-15.8c-6.9-1.6-13.1-2.6-19-4.5c-9.7-3-23.4,1.5-29.1,10c-5.6,8.4-4.5,17.3,3.7,26.8
		c5.7,6.6,11.9,12.7,17.4,19.4c8.9,10.7,6.1,22.8-6.4,29c-1.4,0.7-2.6,1.9-5.6,4.3c13.8-0.4,22.2-5.2,26.8-15.7
		c4.3-9.6,2-18.1-4.8-25.6c-5.7-6.2-11.6-12.1-17.4-18.2c-5-5.3-8.2-11.9-4.5-18.3c2.2-3.8,7.9-6.6,12.6-7.8
		c7.7-1.9,13.3,2.6,17.1,9.2C2010,880.9,2011.4,883.4,2012.9,886z M1744.7,1210.1c2.3,0.5,3.3,1,4.3,0.9c10.4-0.5,17-6.5,21-15.6
		c3.7-8.5,2.1-16.6-3.9-23.5c-6.8-7.8-14.2-15.1-21-22.9c-4.7-5.5-4.6-14.3-0.4-18.4c5.8-5.7,16.5-6.8,22-1.5
		c4.2,4.1,7.4,9.1,12.1,15c1.3-7.3,2.4-13.1,3.2-17.4c-6.7-1.5-12.9-2.5-18.8-4.3c-9.5-3-23.6,1.4-29.3,9.6
		c-5.8,8.4-4.7,17.4,3.3,26.8c6,7,12.5,13.6,18.3,20.7c7.8,9.6,5,21.7-5.9,27.3C1748.2,1207.5,1747.1,1208.5,1744.7,1210.1z
		 M2665.9,1562.4c6.2-2.4,11.9-5.2,17.9-6.6c5.7-1.3,8.6,1.3,6.6,7.6c-1.6,5.1-2.9,10.2-4.5,15.3c-5,16.6-9.6,33.3-15.4,49.6
		c-3.1,8.8-3.4,9.5,5.7,9.6c5.5,0.1,9-0.8,6.8-7.6c-0.5-1.5-0.2-3.4,0.3-5c5.8-20.2,11.9-40.2,17.3-60.5c2.2-8.5,7.4-11.3,14.6-8.9
		c4.6,1.5,8.2,6.1,12.3,9.3c1-2.7,2.8-7.4,4.9-12.9c-3.8-0.4-6.2-0.8-8.7-0.9c-16.3-0.1-32.5-0.1-48.8,0
		C2665.7,1551.5,2664.8,1552.8,2665.9,1562.4z M2160.8,1829.8c10.5,4.4,14.3,2.4,15-8.7c0.1-2.2,0.4-4.5,1-6.6
		c5.6-19.7,11.1-39.3,17.2-58.8c0.8-2.6,5.1-6.2,7.4-5.9c6.5,0.8,12.9,3.4,20.3,5.5c0.3-1.8,0.9-5.3,1.8-10.1c-19.3,0-37.2,0-55.1,0
		c-9.8,0-11.3,1.8-11.1,11.2c6.8-2.3,13.9-5.2,21.2-6.8c4.7-1,6.3,1.7,4.7,6.7C2175.5,1780.7,2168.2,1805.3,2160.8,1829.8z
		 M1493.6,1552.6c1.6,3.6,4.5,7,4.5,10.5c0.1,23-0.2,46-0.8,68.9c-0.1,5,2.1,5.8,6,5.6c3.6-0.1,7.5,0.6,7.4-5.3
		c-0.5-23.3-0.8-46.5-1-69.8C1509.5,1544.6,1509.7,1544.6,1493.6,1552.6z M1799.2,725.3c-0.4-0.5-0.8-1-1.3-1.5
		c-7.5,1-14.9,2.9-22.4,2.8c-6,0-10.2-4.7-9.4-10.7c0.7-5.7,5.9-6.3,11.1-7.7c9.1-2.5,18-6.7,25.7-12.2c2.8-2,3.5-9.9,2-14.1
		c-1.5-4.4-7-5.4-12.1-2.8c7.1,9.5,6.1,15.1-4.1,20.9c-4.3,2.4-9.2,3.8-14,5.1c-1.8,0.5-4.1-0.4-6.1-0.6c0.3-2.1-0.2-4.8,1-6.2
		c5.6-6.5,11.6-12.5,17.4-18.8c-1.9,0.3-5.1,0-7.5,1.2c-11.5,5.8-19.3,15.1-23.4,27.2c-5.5,15.9,6.2,31.4,21.2,27.6
		C1785,733.7,1791.9,728.9,1799.2,725.3z M1576,1209.2c5.2,0,11,0,16.1,0c-0.9-5.3-2.2-9.8-2.3-14.3c-0.2-21.9,0-43.7-0.2-65.6
		c0-2.7-1.3-7.1-2.9-7.6c-2.8-0.8-6.8,0.2-9.3,1.8c-1.1,0.7,0.1,5,0.3,7.7c0.2,2.5,0.8,5,0.8,7.5c0.1,18.8,0.2,37.6,0,56.3
		C1578.3,1199.4,1576.9,1203.9,1576,1209.2z M1249.2,943.7c-0.4-1-0.9-2-1.3-3.1c-1.9,0.7-3.8,1.6-5.8,1.9c-4.6,0.8-9.9,3-13.7,1.5
		c-4.2-1.7-8.7-6.3-10.1-10.6c-2-6.1,4.9-5,8.4-6.5c9.1-3.9,18.8-7,27-12.3c3.3-2.1,5.1-9.5,4.2-13.8c-0.6-2.8-7.1-6-11.1-6.2
		c-18.5-1.2-39.1,18.9-39.7,38.1c-0.4,14.1,10.5,23.6,24.1,20C1237.5,950.9,1243.2,946.7,1249.2,943.7z M2787.1,1125.7
		c-8.7-4.3-11.8-2.9-13.6,7.3c-0.1,0.5-0.4,1-0.6,1.6c-3.9,13.4-7.5,26.9-11.7,40.3c-3.6,11.5-7.8,22.7-11.8,34.2
		c5.3,0,11.9,0,16.1,0C2768.3,1179.2,2779,1152.9,2787.1,1125.7z M2266.7,1318.3c-7.3,30-13.6,58-26,84.6c6,0,12.9,0,18.8,0
		c-0.8-4.3-2.7-8.2-1.8-11.3c6.2-22,12.5-44,19.6-65.8c2.4-7.4-0.2-8.5-6.2-8.2C2268.9,1317.8,2266.8,1318.3,2266.7,1318.3z
		 M3295.9,1719.1c-0.5-4.8-2.1-9.2-1.1-12.9c4.3-15.9,9.3-31.6,14-47.4c2.3-7.9,4.6-15.8,7-24c-5.6,0-10.5,0-13,0
		c-6.1,30-13.6,57.7-25.3,84.3C3283.2,1719.1,3290,1719.1,3295.9,1719.1z M1576.8,974.6c-20.1-35.9-19.7-69.9-1.1-105.4
		c-18.7,13.1-25.7,31.6-25.8,51.7C1549.8,941.7,1556.6,960.9,1576.8,974.6z M2029,1127.8c11.6,15.1,12.9,32.6,13.3,50.3
		c0.4,18.1-2.3,35.4-12.3,51.1C2065.3,1205.1,2059.8,1145.3,2029,1127.8z M2125.6,1660c-21.1-34.5-20.4-68.6-3.5-105
		C2089.9,1579.4,2089.5,1636.5,2125.6,1660z M1620.3,1660.4c-21.8-34.8-20.7-69-4.2-104.9
		C1585.5,1577.4,1582.4,1634.8,1620.3,1660.4z M2705.8,1127.3c17.6,34.1,18.6,68.1,0.1,102.2
		C2739.9,1209.8,2738.6,1145.8,2705.8,1127.3z M2090.4,759c-20.3-35.9-21.5-67.6-4.6-103.3c-10.4,3.8-21.6,22.2-23.1,38.1
		C2060.2,719.9,2066.6,742.4,2090.4,759z M1951.8,1655.3c19.3-14.8,24-35.5,22.1-58.9c-1.3-16.6-13.2-36.4-24-39.8
		C1967.3,1589.2,1966.3,1621.9,1951.8,1655.3z M2625.4,1655.3c14-6.2,24-29,23.1-52.6c-0.8-21.1-11.5-41.4-24.1-46
		C2641.3,1589.3,2640.5,1622,2625.4,1655.3z M1476.5,755.2c33.2-24.3,30.8-83.6-3-103.6C1493.6,684.9,1493.3,718.8,1476.5,755.2z
		 M2450.3,870.6c11,15.3,13.2,32.7,13.4,50.7c0.2,18-2.3,35.4-13.8,52.2C2485.9,949.9,2482.2,889.1,2450.3,870.6z M1337.6,758.3
		c-21.3-34.4-20.2-68.4-3.9-104C1302.9,675.7,1300.4,734.5,1337.6,758.3z M2205.8,1229.4c-11.8-15.1-13.1-32.8-13.4-50.7
		c-0.3-18.1,2.2-35.5,14.3-52.6C2170.8,1149.2,2173.2,1210.5,2205.8,1229.4z M2242.4,754.1c17-13.1,23.4-30.9,22.7-52
		c-0.7-21.3-11.3-42.1-24.2-47C2257.8,687.9,2257.3,720.8,2242.4,754.1z M2236.3,870.1c-18.3,12.5-24.8,31.4-24.8,51.9
		c-0.1,20.3,9.1,43.6,25.7,50.5C2218.2,938.9,2218.9,904.9,2236.3,870.1z M1698.4,1230.8c-19.3-35.2-19.3-69.3-0.3-104.9
		c-19.2,13.9-26.4,32.8-25.9,53.8C1672.6,1199.8,1679.3,1218.3,1698.4,1230.8z M1807.2,969.9c17.2-13.4,23-32,21.8-52.9
		c-1.2-21.5-12.7-42.3-25.8-46.3C1821.5,897.4,1821.9,940.1,1807.2,969.9z M895.7,680.1c-18.7-4.3-43,24.7-34.3,46
		c2.9,7.2,9.2,9.8,16.3,9.8c8.2,0.1,15.1-3.3,21.3-11.4c-3.3,0.7-4.6,0.8-5.9,1.2c-7.2,2.4-14.6,3.7-20.1-3.1
		c-5.4-6.6-2.8-13.6,0-20.6C877.2,691.4,884.8,684.3,895.7,680.1z M2084.5,1177.4c0.2,1.1,0.4,2.2,0.6,3.2c7.2,0,14.3,0.2,21.5-0.1
		c5.5-0.2,8.4,1.5,7.9,7.7c-0.5,5.3-0.2,10.6,0.2,15.9c0.1,1.7,1.8,3.3,2.7,5c1.2-1.7,3.4-3.3,3.6-5.2c0.5-5.3,0.5-10.7,0.1-16
		c-0.5-6.1,2.2-7.8,7.9-7.6c7,0.3,14.1,0.1,21.1,0.1c0.2-1.1,0.4-2.2,0.6-3.2c-1.9-1-3.8-2.5-5.8-2.7c-3.6-0.5-7.3-0.2-10.9-0.3
		c-12.8,0-12.8,0-12.8-13.1c0-4.8,0-9.6,0-14.4c-1.4-0.2-2.7-0.3-4.1-0.5c-0.9,3.5-2.6,7-2.7,10.5c-0.7,17.4-0.6,17.4-17.8,17.5
		c-2.5,0-5.1-0.1-7.5,0.4C2087.3,1175.1,2086,1176.5,2084.5,1177.4z M2336.5,1146.5c-1.1,0.1-2.3,0.1-3.4,0.2
		c-0.4,2-1.1,4.1-1.2,6.1c-1.1,20.8-1.1,20.7-21.6,21.6c-2.7,0.1-5.4,1.5-8,2.3c0.2,1.3,0.4,2.6,0.6,3.9c6.2,0,12.5,0.4,18.7-0.1
		c7.9-0.7,11.4,1.9,10.5,10.3c-0.7,6.1-0.1,12.3-0.1,18.4c1.1,0.1,2.3,0.3,3.4,0.4c0.7-1.8,1.8-3.5,1.9-5.3
		c0.3-4.2,0.1-8.4,0.1-12.6c0-11,0-11,11.4-11.1c5.9,0,11.9,0,17.8,0c0.2-1.1,0.3-2.2,0.5-3.3c-2.2-1-4.3-2.4-6.6-2.8
		c-2.7-0.5-5.6-0.1-8.4-0.2c-14.6,0-14.6-0.2-14.8-14.4C2337.3,1155.5,2336.8,1151,2336.5,1146.5z M2003.5,1601.9
		c-0.2,1.3-0.4,2.6-0.5,3.8c2.3,0.8,4.6,2,6.9,2.3c3.9,0.4,7.8,0.1,11.7,0.1c10.3,0.1,10.9,0.9,11,11c0.1,5.8,0.5,11.6,0.8,17.4
		c0.9,0,1.8,0.1,2.8,0.1c0.6-2,1.5-3.9,1.7-5.9c0.8-6.8-1.1-16,2.7-19.8c3.8-3.8,13-2,19.8-3c2.5-0.4,4.8-1.8,8.6-3.3
		c-2.6-1.6-3.2-2.3-3.9-2.4c-3.6-0.3-7.2-0.5-10.9-0.5c-19.5,0-15.8,0.1-16.2-16.3c-0.1-4.2-0.7-8.4-1.1-12.7
		c-1.4,0.1-2.8,0.1-4.2,0.2c0,6.7-0.4,13.5,0.1,20.2c0.5,6.8-2.4,9-8.7,8.7C2017.2,1601.7,2010.4,1601.9,2003.5,1601.9z
		 M2223.8,1208.5c6.2,2.4,9.6,1.5,11-4.4c0.9-3.8,2.6-7.4,3.5-11.1c3.2-12.1,6.3-24.3,9.3-36.5c0.3-1.4-0.4-3-0.8-4.8
		c-3.3,0.7-6.2,0.7-8.5,2c-1.6,0.9-3,3.3-3.3,5.2c-0.8,5.4-0.2,11-1.5,16.2C2230.9,1186.1,2227.3,1196.9,2223.8,1208.5z
		 M2150.3,1581.3c-0.3,0.7-0.7,1.4-1,2.1c7,2.8,5.8,7.4,4.1,12.6c-3.6,11.1-7,22.4-10.1,33.7c-0.6,2.2,1.1,4.9,1.7,7.4
		c2.2-1.3,5.4-2,6.3-3.9c7.7-16.3,11-33.8,14.2-52.7C2159.9,1580.8,2155.1,1581.1,2150.3,1581.3z M1856.6,921.6
		c9.8,3.6,60.8,2.8,65.7-0.8C1916.1,915.5,1862.3,915.8,1856.6,921.6z M3078.1,1689.1c-6.8-7.4-62.2-6.9-66.4,0
		C3033.7,1689.1,3055.3,1689.1,3078.1,1689.1z M949.2,688.9c5.6,7.6,60.5,7.2,64.4,0C992.1,688.9,971,688.9,949.2,688.9z
		 M1594.2,921.3c9.3,4.2,60.1,3.1,63.8-1.1C1651.3,915.6,1599.9,916.1,1594.2,921.3z M1524.7,1245c-22.7,0-43.8,0-65.9,0
		C1464.7,1251.9,1517.8,1252.1,1524.7,1245z M2256.3,922.5c21.3,1,42.4,1.8,65.8,0.4C2313.8,915.5,2261.4,915.8,2256.3,922.5z
		 M2487.1,1637.7c1.4,0.4,2.8,0.9,4.2,1.3c9.9-29.9,19.9-59.7,29.8-89.6c-1.2-0.4-2.5-0.8-3.7-1.2
		C2507.3,1578.1,2497.2,1607.9,2487.1,1637.7z M1852.9,1209.9c7.4-4,34-82.2,30.1-89C1873,1150.4,1863.4,1179,1852.9,1209.9z
		 M2605.3,1121.7c-8.4,7-33.5,83.1-29.9,89.7C2585.4,1181.6,2595,1152.8,2605.3,1121.7z M1803.5,1547.2
		c-10.8,31.7-20.8,61.2-30.7,90.6C1780.1,1633.7,1805.9,1556.9,1803.5,1547.2z M2956.2,1752.5c2.5,0,5.5,0,7.4,0
		c0-16.7,0-32.5,0-48.7c-6.2,0.2-7.8,2.1-7.6,7.3C2956.6,1724.7,2956.2,1738.3,2956.2,1752.5z M1429.7,722.4
		c0.6,5.2,1.5,9.5,1.6,13.8c0.2,9.5-0.2,19.1,0.1,28.6c0.1,1.7,2.7,3.3,4.1,4.9c1-1.6,2.8-3.2,3-4.9c0.4-3.6,0-7.3,0-10.9
		c0-10.8,0-21.6,0-33.5C1434.3,721.3,1431.7,721.9,1429.7,722.4z M1368.5,844.6c-5.1,16.9-9.7,32.6-14.5,48.6c2.8,0,6,0,7.3,0
		c4.8-17,9.1-32.6,13.6-48.6C1372.7,844.6,1370,844.6,1368.5,844.6z M1394,1278.6c0.9,5.2,2.2,9.6,2.3,14c0.3,9.2-0.1,18.5,0.1,27.7
		c0,1.7,1.8,3.4,2.8,5.1c1.1-1.8,3.3-3.6,3.3-5.5c0.2-12-0.1-24.1-0.2-36.1C1402.1,1276.7,1398.8,1276,1394,1278.6z M2778.6,1695.4
		c5.2,5.6,40.1,7.8,60.8,5.2c2.1-0.3,4.1-2,6.2-3c-0.2-0.7-0.5-1.5-0.7-2.2C2823.3,1695.4,2801.8,1695.4,2778.6,1695.4z
		 M1443,1695.5c-23,0-44.5,0-66.5,0C1380.7,1702.6,1436.3,1703.1,1443,1695.5z M1443.6,1676.8c-5.6-5.3-47.7-7.8-62.2-5
		c-1.9,0.3-3.4,2.1-5.2,3.2c0.3,0.6,0.5,1.2,0.8,1.8C1398.7,1676.8,1420.2,1676.8,1443.6,1676.8z M2846.2,1676.8
		c-6.4-7.6-62.1-7.1-66.5,0C2801.8,1676.8,2823.3,1676.8,2846.2,1676.8z M2221.1,1602.8c7.1,7.7,61.2,7.1,65.1,0
		C2264.7,1602.8,2243.7,1602.8,2221.1,1602.8z M1923.8,628.2c-1.2-0.4-2.5-0.8-3.7-1.2c-1.5,3-3.3,5.9-4.3,9
		c-3.6,11.5-7,23-10.2,34.6c-0.5,1.8,0.7,4.1,1.1,6.1c1.8-1.5,4.5-2.8,5.2-4.7c2.5-7.1,4.4-14.4,6.4-21.7
		C1920.3,643,1922,635.6,1923.8,628.2z M1596.2,701.7c-22.5,0-43.6,0-65.6,0C1536.4,708.4,1589.5,708.6,1596.2,701.7z M1039.5,910
		c-5.6-7.3-59.8-7.2-64.7,0C996.4,910,1017.3,910,1039.5,910z M974.7,929c5.2,7.2,59.4,7.2,64.6,0C1017.5,929,996.5,929,974.7,929z
		 M1014.2,716.3c-5.7-7.4-59.8-7.2-64.7,0C971.1,716.3,992.1,716.3,1014.2,716.3z M1459.6,1271.6c10.1,3.1,58.6,2.3,63.5-0.9
		C1517.7,1265.2,1464.8,1265.4,1459.6,1271.6z M1794.4,1237.1c0-13.8,0-28,0-41.7C1781.6,1204.8,1781.6,1229.9,1794.4,1237.1z
		 M2405.2,937.3c1,4.9,2.3,9,2.5,13.2c0.3,9.5-0.2,19,0.2,28.5c0.1,1.8,2.2,3.5,3.4,5.3c0.9-1.7,2.7-3.4,2.7-5.1
		c0.1-12-0.3-24-0.3-36C2413.5,935.4,2410.1,934.6,2405.2,937.3z M1728.4,1667c12.4-8.5,12.5-34.9,0-41.2
		C1728.4,1639.2,1728.4,1653.1,1728.4,1667z M2030.3,980.2c0-14.3,0-28.3,0-41.7C2017.8,947.2,2017.4,971.5,2030.3,980.2z
		 M1128.6,723.8c-6.7,4.1-10.2,12.9-9.1,25.1c0.8,8.7,4.1,14,9.1,16.1C1128.6,751.3,1128.6,737.2,1128.6,723.8z M1714.4,1625.2
		c-12.8,7.7-13,34,0,41.7C1714.4,1653,1714.4,1638.7,1714.4,1625.2z M1142.7,765.7c12.7-9.8,12.3-35.8,0-41.6
		C1142.7,737.6,1142.7,751.7,1142.7,765.7z M1808.5,1195.4c0,14.1,0,28.3,0,41.8C1821,1229.2,1821.2,1204.4,1808.5,1195.4z
		 M2044.4,938.4c0,14.3,0,28.5,0,42.3C2057,971.3,2057,947.3,2044.4,938.4z M1318.4,1729.8c8.5-13.6,8.2-19.8-0.8-25.1
		c-6.3-3.8-13-1.6-16.8,5.4C1315.5,1709.4,1315.5,1709.4,1318.4,1729.8z M1760.6,962.4c7.2-5.8,10.7-12.4,7.1-19.7
		c-1.9-3.7-7.1-6.6-11.4-7.9c-2.8-0.8-6.6,1.9-10,3C1763.8,942.6,1766.2,946.3,1760.6,962.4z M2203.3,743.2c4.2-5.6,5.9-11.7,2-16.9
		c-2.6-3.4-8.1-6.2-12.4-6.3c-3.7-0.1-7.6,3.9-11.4,6c0.4,0.7,0.8,1.3,1.2,2C2195.1,723.2,2196.3,724.1,2203.3,743.2z M1951.6,951.6
		c8.8,0.7,15.5,1.2,21.8,1.7c-6.5-6.7-12.4-12.8-19.2-19.8C1953.3,939.8,1952.5,945.4,1951.6,951.6z M1737.6,1210.3
		c-6.8-6.9-12.5-12.7-19.4-19.7c-0.8,6.2-1.5,11.9-2.3,17.7C1724.2,1209.1,1730.9,1209.7,1737.6,1210.3z M1682.7,1551.7
		c5.6,7,10.6,13.3,16,20c1.1-6.5,2.2-12.6,3.2-18.8C1694.7,1552.4,1688.8,1552.1,1682.7,1551.7z M1112.7,669.6
		c1.3-6.3,2.5-12.1,3.8-18.6c-7.1,0-13.3,0-19,0C1102.4,656.9,1107,662.6,1112.7,669.6z M2208.2,764.4c-20.5-3.8-23.3-3.4-26.7,3
		C2190.2,772.5,2204.7,770.9,2208.2,764.4z M1322.2,861.1c-2.6,11.7-4.8,21.5-7,31.3c1.7,0.2,2.7,0.4,2.8,0.3
		c3.1-9.6,6.1-19.2,8.8-28.9C1326.9,863.3,1323.5,861.9,1322.2,861.1z M1874.9,644.8c-6.9,6.8-4.8,17.3-9.3,25.2
		c-0.9,1.5,0,4,0.1,6.1c0.7,0,1.5,0.1,2.2,0.1C1871.8,666.3,1878.8,657.3,1874.9,644.8z M2269.3,1168.4c1.2-4.8,2.6-9,3.1-13.3
		c0.1-1-3.8-3.8-4.5-3.4c-4.3,2.5-8.1,5.7-12.6,9.1C2260.2,1163.5,2263.5,1165.3,2269.3,1168.4z M1323.9,1746.7
		c-4.6,0-10.2,1.6-13.8-0.3c-8.1-4.5-9.7,0.7-13.1,5.8C1315.1,1755.9,1324.3,1754,1323.9,1746.7z M1771.4,978.3
		c-6.5,0-11.4,0.3-16.4-0.1c-4.4-0.3-9.3-3.7-11.8,3c3.9,1.1,7.7,3.1,11.7,3.2C1760.2,984.6,1766.7,986.9,1771.4,978.3z
		 M2173.6,1588.8c3,1.5,5.4,3.4,7.8,3.6c2.5,0.2,7-0.8,7.4-2.2c0.8-3-0.4-6.6-0.8-9.9c-3,0.8-6.3,1-8.9,2.5
		C2176.8,1584.3,2175.2,1587.1,2173.6,1588.8z M3275.7,1644.7c0.8,0.1,1.6,0.3,2.3,0.4c5.2-3,10.5-6,15.7-9
		c-0.2-0.9-0.5-1.8-0.7-2.8c-4.8,0.7-10,0.6-14.3,2.5C3276.8,1636.8,3276.6,1641.7,3275.7,1644.7z M2238.6,1330.4
		c8.3-4.4,13.9-7.3,19.5-10.2c-0.2-0.9-0.4-1.7-0.5-2.6c-5.2,0.7-10.7,0.6-15.4,2.4C2240.2,1320.8,2240,1325.8,2238.6,1330.4z
		 M904.2,677.6c-1.3,5.9-2.2,8.9-2.4,11.9c-0.1,1.9,0.3,4.9,1.4,5.4c1.4,0.7,4.7,0,5.5-1.3c1.5-2.3,3.1-5.8,2.4-8.1
		C910.3,682.8,907.1,680.7,904.2,677.6z M2746.9,1137c5.5-3.4,11.1-6.7,17-10.3C2752.5,1120.8,2747,1124.5,2746.9,1137z
		 M3339.1,1650.6c0.6-6.8,0.9-11.4,1.3-16c-3.7,0-7.3,0-11.7,0C3332.3,1640.1,3334.9,1644.1,3339.1,1650.6z M1269.7,874.3
		c0,0.7,0,1.3,0,2c11.6,0,23.2,0,34.8,0c0-0.7,0-1.3,0-2C1292.9,874.3,1281.3,874.3,1269.7,874.3z M2300.5,1332.1
		c0.7,0.3,1.3,0.6,2,0.9c0.4-4.8,0.8-9.5,1.2-14.3c-3.6,0-7.2,0-11.6,0C2295.8,1324.4,2298.1,1328.3,2300.5,1332.1z M2798.2,1124.3
		c0,0.6-0.1,1.3-0.1,1.9c3.9,3.2,7.8,6.4,13.9,11.3c-0.2-5.6,0.5-11.3-0.7-11.8C2807.3,1124.2,2802.6,1124.6,2798.2,1124.3z"/>
	<path class="st1" d="M2454.3,1588.5c-6.5,81.1,4.1,183.3,26.6,261.2c4.8,16.4,10.1,34,5,50.3c-5.7,18.1-22.7,29.2-38.8,37.9
		c-72.7,39.4-153.5,62.2-235.3,66.3c-22.5-43.8-49.3-83.9-55.6-133.1c-2.4-18.9-1.9-44.2-7.6-62.3c-6.4-20.1-15.6-52.2-23.5-70.7
		c38.8-43.6,92.3-64.5,136.2-102.6c18.6-16.1,37.7-31.9,59.1-43.5c21.4-11.6,45.4-19.1,69.5-17.7
		C2413.9,1575.5,2439.5,1568.5,2454.3,1588.5z"/>
	<path class="st2" d="M2452,1637c-21.9,46.4-46.9,89.7-76.7,131.6c-10,14-22,28.5-41.8,35c-13.2,4.3-28.2,4.4-42.6,4.4
		c-35.4,0-140.2-3.2-142.5-6.6c-8.2-12.3-6.2-21.9-14.3-34.2c45.5,8.7,84.5,8.1,127.4-0.7c42.9-8.8,83.3-23.5,113-47.6
		C2404,1694.8,2429,1665.8,2452,1637z"/>
	<path class="st3" d="M2563.2,1301.4c19.3-29.8,42.4-65.3,66-103.5C2616,1234.4,2593.6,1269.9,2563.2,1301.4z"/>
	<path class="st1" d="M2586.5,1955.5c-5.9-23-28.4-40.2-50.9-47.8c-8.3-2.8-16.7-5.2-25.2-7.3c-5.5-1.4-11-2.6-16.5-3.8
		c-69-14.9-139.6-2-209.9,3c-70.2-4.9-140.8-17.9-209.9-3c-5.6,1.2-11.1,2.5-16.6,3.8c-8.5,2.1-16.9,4.5-25.2,7.3
		c-22.5,7.6-45,24.8-50.9,47.8c-3.7,14.4,1.7,29.3,7,43.1c19.7,51.2,41.4,105.1,85.2,138.1c24.8,18.7,54.8,29.1,84.8,37.2
		c41.1,11,83.2,18,125.6,21c42.5-3,84.5-10,125.5-21c30-8,60-18.5,84.7-37.2c43.8-33,65.5-87,85.2-138.1
		C2584.8,1984.8,2590.2,1969.9,2586.5,1955.5z"/>
	<linearGradient id="SVGID_1_" gradientUnits="userSpaceOnUse" x1="1454.0685" y1="2452.6287" x2="3109.4277" y2="2452.6287">
		<stop  offset="0" style="stop-color:#244357"/>
		<stop  offset="1.187563e-02" style="stop-color:#244357"/>
		<stop  offset="0.5812" style="stop-color:#2B5269"/>
		<stop  offset="1" style="stop-color:#2D576F"/>
	</linearGradient>
	<path class="st4" d="M2869.8,2137.7c-26.8-41.7-71-93.2-106.3-127.4c-12.6-12.2-26.3-23.1-40.7-32.8
		c-31.6-21.2-66.6-36.3-102.4-48.3c-18.2-6.1-36.6-11.4-55.1-16.3c-16.4-4.3-37.3-13.3-54.4-12.6c-17,0.7-36,13.1-52.1,18.7
		c-20.6,7.1-41.6,13.1-62.8,18c-41.5,9.6-84,14.9-126.6,15.7c-11.5,0.2-23.1,0.1-34.6-0.4c-41-1.8-82.1-8.4-121.2-21.7
		c-19.7-6.7-37.3-17-56.3-25c-15.6-6.6-34.6,2.1-51,6.4c-72.4,18.8-146.5,44.4-202,98.3c-35.3,34.3-60.8,77.9-84,121.8
		c-117.8,222.3-193.5,476.4-266.3,718.4c83-44.5,182.1-51.6,271.2-22.1c17.6-52.7,36-106.7,55.9-160c0,0,0,0,0,0
		c13.8-38.2,29-75.9,45.9-112.8c16.1-35.1,32.4-77.3,56.4-107.3c1.3,44.1-10,91.8-13.1,136.2c-3.3,46.4-5.3,92.9-5.9,139.4
		c-0.7,56.6,0.7,113.1,4.1,169.6c1.7,28.9,4,57.7,6.9,86.4c1.9,19.1-1,22,17.2,22.8c14.6,0.6,29.8-1.7,44.3-2.5
		c115.8-6.7,231.5-14.4,347.1-23.6c23.1,1.8,46.2,3.6,69.3,5.3c92.1,6.8,184.2,12.8,276.4,18.2c11.9,0.7,55.7,9.8,63.6,1.7
		c4.6-4.6,3.6-28,4.1-34.8c1-11.1,1.6-22.2,2-33.4c1.7-45.6-0.6-91.3-3-136.9c-0.8-15.3-1.6-30.6-2.4-45.8
		c-2.4-47.8-4.9-95.5-7.3-143.3c-1.2-23.9-2.4-47.8-3.7-71.6c-1.1-22.2-7.1-49.9-3.7-71.7c4.4-28,21.8,11.9,26.7,21
		c10.4,19.5,20.3,39.3,29.7,59.3c18.9,40.3,35.9,81.7,51,123.7c0,0,0,0,0,0c19.9,53.4,38.2,107.3,55.8,160
		c89.1-29.5,183.7-27.1,266.7,17.4C3050.3,2590.1,3029,2385.6,2869.8,2137.7z"/>
	<path class="st5" d="M1898.4,2495.3c-0.5-2.9-1.1-5.8-1.7-8.7c0.5,2.9,1.1,5.9,1.6,8.9C1898.4,2495.4,1898.4,2495.3,1898.4,2495.3z
		"/>
	<path class="st6" d="M1781.2,2642.5c29.2-74.9,62.2-148.5,103-215.3c3.1,12.7,5.9,25.5,8.5,38.3c-16.7-87.7-33.5-175.3-50.2-262.9
		c-10,56-17.2,111.9-27.2,167.9C1799.3,2460.4,1783.2,2551.5,1781.2,2642.5z"/>
	<path class="st5" d="M2669.4,2495.3c0.5-2.9,1.1-5.8,1.7-8.7c-0.5,2.9-1.1,5.9-1.6,8.9C2669.5,2495.4,2669.5,2495.3,2669.4,2495.3z
		"/>
	<g>
		<g>
			<path class="st7" d="M2596,1282.5c0,44.3-16.2,116.8-28,157.9c-23.4,81.5-57.2,125.5-106.5,184.7c-23.3,28-64.2,57.3-93.3,75.3
				c-80.6,49.8-112.2,75.6-194,75.6c-85.1,0-116.1-19.1-194-68c-28-17.6-68.5-54.7-90.7-82.9c-42.5-54-76.7-104.9-99.9-179.1
				c-13.4-43-26.7-104.3-26.7-151.3c0-116.8,19.1-296.5,67.7-386.6C2199.3,225,2031,797.2,2161.5,797.2c90.6,0,252-5.9,324.2,50.5
				C2596.8,934.5,2596,1118.7,2596,1282.5z"/>
		</g>
	</g>
	<path class="st8" d="M2786.8,2653.7c-32.7-83.7-108.4-208.8-108.4-193.7c-1-102.8-2-205.6-3-308.4c15.8,63.7,29.5,127.6,45.3,191.3
		C2746,2445.2,2771.6,2548.9,2786.8,2653.7z"/>
	<path class="st1" d="M3098,2767c44.5,155.1,1.8,229.5,1.8,229.5c-84.1,53.4-639.1-58.1-639.1-58.1l0.1-0.7
		c-27.7-0.1-55.2,2.3-81.7,10.7c-17.6,5.6-34.6,13.7-50.3,24.5c-12.5,8.6-24.2,18.9-37.8,25c-13.6,6.1-29.8,7.4-42.4-1.8
		c-7.5-5.5-13.4-14.4-21.7-17.9c-16.1-6.7-35.2,9.3-49.7-1.4c-9.7-7.1-12.4-23.1-21.9-30.6c-10.9-8.5-25.7-2.5-37.8-8.2
		c-6.3-3-11.2-8.8-16-14.5c-10.5-12.6-21-25.2-31.5-37.8c-8.8-10.5-18.3-23.6-13-38.3c1.6-4.6,4.6-8.3,8.1-11
		c10.1-7.9,22.2-7.9,33.6-11c56.3-15.5,81.2-100.6,137.1-117.6c61.6-18.7,103.5,57.8,157.6,75.8c17.9,5.9,36.6,5.2,55,4.2
		c29-1.6,57.9-3.9,86.8-6.7c65.9-5.4,133-4.5,199.4-7.2c8.5-0.3,95.4-35.1,95.9-32c0,0,52.5-17.8,119.4-13.5
		C3016.9,2732.8,3098,2767,3098,2767z"/>
	<g>
		<path class="st9" d="M2424.6,2925.3l-122.7-651c-7.5-39.7-42.7-72-78.6-72h-904.1c-17.9,0-32.6,8.1-42,20.7h0l0,0.3
			c-0.7,1-1.4,2.2-2.1,3.3l-4.1,79l-1.7-22.8l121.1,642.4c7.5,39.7,42.7,71.7,78.6,71.7h904.1C2409,2997,2432.1,2965,2424.6,2925.3z
			"/>
		<path class="st9" d="M2913.4,2989H2355v33.6h617v-15.9C2972.1,2996.9,2945.8,2989,2913.4,2989z"/>
		<path class="st10" d="M2363.9,3030.6h-903.1c-35.9,0-71-32.9-78.5-73.4l-122.6-664.5c-7.5-40.5,15.5-73.4,51.4-73.4h903.1
			c35.9,0,71,32.9,78.5,73.4l122.6,664.5C2422.8,2997.7,2399.8,3030.6,2363.9,3030.6z"/>
		
			<ellipse transform="matrix(0.9152 -0.4031 0.4031 0.9152 -896.5062 961.328)" class="st11" cx="1835.5" cy="2610.5" rx="89.5" ry="104.2"/>
	</g>
	<g>
		<path d="M2335.2,1399.4L2335.2,1399.4c-46.8-0.7-86.4-9.5-111.2-24.6c-9.3-5.5-40.4-26-57.1-54.3c-6.5-11-11.3-22.2-15.8-32.9
			c-11.2-26.3-19-42.4-38-43.8c-17.9,0.9-26.1,16.8-38.1,42.7c-4.8,10.6-10,21.7-16.7,32.5c-17.5,27.8-35.5,45.9-44.7,51.2
			c-25.6,14.4-41.7,19.7-88.6,19.1c-56.8-0.8-85.1-16.4-112.1-34.5c-21.3-14.3-31.4-40.9-36.3-60.6c-1.6-6.4-6-20.8-10.5-34.7
			c-4-12.7-8.2-25.4-10-32.5c-1.8-6.9-3.8-7.1-5.7-7.3c-9.1-1-16.4-6.5-17.7-13.5l-1.8-9.5c-1.5-7.5-3.1-15-4.3-24.1
			c-1-7.9,5.2-15,15.1-16.9c43.1-8.7,111-7.2,144-6.7c11,0.2,63.1,6.5,94.5,13.4c39.4,8.7,50.6,13.4,74.2,19.1
			c24.4,5.9,43.7,10.4,59.9,10.7l0,0c16.3,0.2,35.6-3.8,60.2-8.9c23.8-5,53.1-11.1,88.7-15.1c32-3.7,67.6-5.9,100.4-6
			c9.9-0.1,20.4,0,31.7,0.1c33.1,0.5,114.9,2.7,157.8,12.7c9.6,2.2,15.8,9.5,14.6,17.4c-1.5,8.9-3.3,16.5-5,23.8l-2.4,9.7
			c-1.5,7-8.7,12.3-17.8,13c-1.9,0.2-3.9,0.3-5.9,7.1c-2.3,7.1-6.6,19.7-10.9,32.2c-4.9,13.7-9.8,28-11.5,34.4
			c-5.5,19.6-16.4,45.8-38.1,59.6C2448.6,1389.1,2392,1400.3,2335.2,1399.4z M2374.1,1190.1c-79.4-1.2-167.7,11.5-182.6,26.1
			c-8.1,8.1-10.8,24-7.8,43.6c5.6,33.3,28.6,77.8,62.8,98.4c19.7,12,51.5,18.8,89.6,19.3c46.6,0.7,94.1-8.3,115.5-21.8
			c37.3-23.6,44.4-114.3,19.2-147.5C2464.6,1200,2436.1,1191,2374.1,1190.1z M1892.3,1178.8c-62-0.9-63.1,4.5-69.2,12.4
			c-26.1,32.4-21.6,123.3,14.9,148c21,14.1,40.3,27.3,86.8,28c38,0.6,46.8-3,66.7-14.4c34.7-19.6,45.1-62,51.3-95.1
			c3.9-19.5,1.4-35.5-6.5-43.8C2022.3,1198.9,1971.4,1180,1892.3,1178.8z"/>
	</g>
	<path class="st12" d="M2105.1,1445.4c-16.9-3.1-36.2,0.3-42.7-22.4c-3.3-11.5,0.3-17.6,11.6-19.3c26.3-4,47.8,5.5,65.7,24.3
		c5.7,6,5.7,11.4-3.9,13C2125.5,1442.7,2115.2,1443.9,2105.1,1445.4z"/>
	<path class="st13" d="M2175.1,1079.5l16.3,32l-0.5,2c7.2-3.7,14.1-7.3,14.6-7.4c1.2-0.3,123.7-6,123.7-6l72.5-1.1l24,3l14.4,5.2
		c0,0,12.7,3.6,14.1,5.8c1.3,2.2,16.9,13.9,16.9,13.9s-39.6-12-69.1-12.8l15.9-1.9c0,0-26.3-2.4-54-0.2s-177,16.6-187.7,13.4
		C2166.9,1104.7,2175.1,1079.5,2175.1,1079.5z"/>
	<path class="st14" d="M2123.7,1322.8c-1.5,12-3,23.3-4.4,34.6c-0.9,7-4.8,11.4-11.9,11.3c-9.1-0.1-19.9,3.8-26.5-5.1
		c-4.2-5.7,2.3-11.1,5.1-16.1c5.6-10,11-20.1,17.3-29.6c3.8-5.6,5.9-16,15.5-12.6C2127.1,1308.1,2121.1,1317.4,2123.7,1322.8z"/>
	<g id="Слой_3">
		<g class="st15">
			<path class="st3" d="M1430.9-980.2c-7.2-2-14.6-4.1-21.9-6.5C1415.7-983.7,1423-981.4,1430.9-980.2z"/>
			<path class="st3" d="M2157.5-771.5c-5,9.8-10.3,19.5-15.9,29.1C2148.3-751,2153.4-760.9,2157.5-771.5z"/>
			<path class="st3" d="M2050.2-872.1c-2.7,2.9-5.6,5.6-8.8,8.2C2045.1-866.2,2047.9-869,2050.2-872.1z"/>
			<path class="st3" d="M2037.4-787.2c-2.9,7.3-5.7,14.6-8.4,22C2032-772,2034.7-779.4,2037.4-787.2z"/>
			<path class="st3" d="M2241.4-971.2c0,1-0.1,2-0.2,3C2241.4-969.2,2241.4-970.2,2241.4-971.2z"/>
			<path class="st3" d="M1671.4-1305.2c0.4,0.1,0.8,0.2,1.1,0.4C1681.5-1310.7,1678.2-1309.4,1671.4-1305.2z"/>
			<path class="st3" d="M2226.3-1132.1c-0.4,12.1-0.3,20.9,0.2,27C2227.2-1114.1,2226.8-1123.2,2226.3-1132.1z"/>
		</g>
	</g>
	<g>
		<path class="st11" d="M2015.6,1277.7c-1.5,24.2-42.8,51.3-90.6,48.3c-47.9-3.2-76-33.5-74.4-59c1.7-25.6,35.4-61.7,83.5-58.6
			C1981.8,1211.5,2017.4,1250.7,2015.6,1277.7z"/>
		<polygon class="st11" points="1886.8,1255.6 1899.7,1269.2 1880.9,1275.7 		"/>
		<path class="st16" d="M1850.7,1267c9-15.1,24.5-51.7,83.7-47.8c55.1,3.6,73.5,45.5,81.2,58.5c1.4-19.6-12.5-64.8-73.1-72.1
			C1873.7,1197.3,1849.7,1244.3,1850.7,1267z"/>
	</g>
	<g>
		<path class="st11" d="M2423.2,1288.7c-1.6,25.9-45.8,55-97,51.7c-51.3-3.4-81.4-35.9-79.6-63.2c1.8-27.4,38-66.1,89.4-62.7
			C2387.1,1217.9,2425.2,1259.8,2423.2,1288.7z"/>
		<polygon class="st11" points="2285.3,1265 2299.1,1279.6 2279,1286.6 		"/>
		<path class="st16" d="M2246.6,1277.3c9.6-16.2,26.3-55.4,89.7-51.2c59,3.8,78.8,48.8,87,62.7c1.5-21-13.4-69.4-78.3-77.3
			C2271.3,1202.6,2245.6,1253,2246.6,1277.3z"/>
	</g>
	<g>
		
			<linearGradient id="SVGID_2_" gradientUnits="userSpaceOnUse" x1="-4908.0903" y1="1965.0959" x2="-4908.0903" y2="2040.1099" gradientTransform="matrix(-0.9863 0.1648 0.1648 0.9863 -3251.4299 106.6103)">
			<stop  offset="0" style="stop-color:#C1B49A"/>
			<stop  offset="1" style="stop-color:#231F20"/>
		</linearGradient>
		<path class="st17" d="M1956.4,1279.2c-3.4,20.4-22.8,34.2-43.2,30.7c-6.9-1.2-13.1-4.2-18.1-8.4c-9.7-8.3-14.9-21.3-12.7-34.8
			c3.4-20.4,22.8-34.2,43.2-30.7c15.9,2.7,27.8,15,30.6,30C1957.1,1270.2,1957.2,1274.7,1956.4,1279.2z"/>
		<ellipse transform="matrix(0.9135 -0.4068 0.4068 0.9135 -351.8435 890.8917)" cx="1919.2" cy="1272.9" rx="23.4" ry="23.4"/>
		<path class="st18" d="M1956.3,1266c-2.7-2-5.7-3.6-9-4.9c-19.9-7.6-42.2,2.3-49.9,22.2c-2.3,6-3,12.2-2.3,18.2
			c-9.7-8.3-14.9-21.3-12.7-34.8c1.7-10.2,7.4-18.7,15.1-24.2c7.8-5.6,17.8-8.2,28.1-6.5C1941.6,1238.6,1953.5,1251,1956.3,1266z"/>
		<path class="st11" d="M1945.7,1265.7c-1.2,3-4.6,4.6-7.6,3.4c-3-1.2-4.6-4.6-3.4-7.6c1.2-3,4.6-4.6,7.6-3.4
			C1945.3,1259.2,1946.8,1262.6,1945.7,1265.7z"/>
		<path class="st11" d="M1929.7,1295.8c-0.7,1.8-2.6,2.6-4.4,2c-1.8-0.7-2.6-2.6-2-4.4c0.7-1.8,2.6-2.6,4.4-2
			C1929.5,1292.1,1930.4,1294,1929.7,1295.8z"/>
	</g>
	<polygon class="st11" points="1897.7,1262 1887.2,1237.9 1874.6,1258.3 	"/>
	<g>
		
			<linearGradient id="SVGID_3_" gradientUnits="userSpaceOnUse" x1="-5302.251" y1="2031.6429" x2="-5302.251" y2="2115.562" gradientTransform="matrix(-0.9863 0.1648 0.1648 0.9863 -3251.4299 106.6103)">
			<stop  offset="0" style="stop-color:#C1B49A"/>
			<stop  offset="1" style="stop-color:#231F20"/>
		</linearGradient>
		<path class="st19" d="M2361.3,1285c-3.9,22.8-25.5,38.2-48.3,34.4c-7.7-1.3-14.6-4.7-20.2-9.4c-10.9-9.3-16.7-23.8-14.2-38.9
			c3.9-22.8,25.5-38.2,48.3-34.4c17.8,3,31.1,16.8,34.2,33.6C2362,1275,2362.1,1279.9,2361.3,1285z"/>
		<ellipse transform="matrix(0.9135 -0.4068 0.4068 0.9135 -319.2676 1054.2362)" cx="2319.6" cy="1277.9" rx="26.1" ry="26.1"/>
		<path class="st18" d="M2361.1,1270.2c-3-2.2-6.4-4.1-10-5.5c-22.3-8.5-47.3,2.6-55.8,24.9c-2.6,6.7-3.4,13.7-2.6,20.3
			c-10.9-9.3-16.7-23.8-14.2-38.9c1.9-11.4,8.2-20.9,16.9-27.1c8.8-6.3,19.9-9.2,31.4-7.3C2344.7,1239.6,2358,1253.4,2361.1,1270.2z
			"/>
		<path class="st11" d="M2349.3,1269.9c-1.3,3.4-5.1,5.1-8.5,3.8c-3.4-1.3-5.1-5.1-3.8-8.5s5.1-5.1,8.5-3.8
			C2348.9,1262.7,2350.6,1266.5,2349.3,1269.9z"/>
		<path class="st11" d="M2331.4,1303.6c-0.8,2-3,2.9-4.9,2.2c-2-0.8-2.9-3-2.2-4.9s3-2.9,4.9-2.2
			C2331.1,1299.4,2332.1,1301.6,2331.4,1303.6z"/>
	</g>
	<g>
		<path class="st20" d="M1812.4,948.9c-2.5,16.1-0.4,32.6,6,47.4c-5.3-17.6-4.4-36.2,1.9-53c2.4,3.3,5.1,6.4,8.1,9.3
			c6,6,13,11.3,20.7,15.5c7.7,4.2,16.1,7.4,24.9,9.3c-8.7-2.2-16.9-5.7-24.3-10.1c-7.4-4.4-14.1-9.9-19.7-16
			c-2.8-3.1-5.4-6.3-7.7-9.7c41.8,17.3,111.8,24.4,185.9,27.8c38,9.7,78.2,16,118.5,18.8c53.7,3.7,107.9,1.2,157.9-7.7
			c9.9,1.3,20.5,2.6,31.6,3.9c10.4,3.7,20.6,7.8,31.4,11.4c8.3,2.8,17,5.4,26.3,7.4c9.2,2,19,3.3,28.9,3.6
			c9.8,0.2,19.6-0.7,28.1-2.9c4.2-1.1,8.1-2.5,11.3-4.3c2.1-1.1,3.8-2.4,5.2-3.7c42.7,3,77.5,5,88.5,5.6c-1,0.7-2.1,1.3-3.2,1.9
			c-8.2,4.7-17.2,8.4-26.7,11.1c-9.5,2.7-19.3,4.6-29.2,5.9c-9.9,1.4-20,2.3-30,3.2c10.1-0.2,20.2-0.5,30.3-1.2
			c10.1-0.7,20.2-1.9,30.2-4.1c10-2.2,19.7-5.4,28.9-9.9c1.9-0.9,3.8-2,5.7-3c0.1,0.1,0.2,0.3,0.3,0.4c-11,17.4-17.6,37-19.6,57.8
			c2.9-20,10.1-38.5,21.3-54.8c52,91.9,70.5,323.1,70.5,323.1l45.9-213.8c0,0,19.2-191.6,20.8-196.3c1.6-4.8-115-42.3-115-42.3
			s-308.8-19.6-332.9-23.8c-24.1-4.1-448.3-32.9-448.3-32.9 M2328,985.6c38.2,4,80.8,7.4,117.7,10c-1.4,1.1-3,2.2-4.8,3.2
			c-3.1,1.6-6.9,3-11,4c-8.2,2-17.7,2.8-27.1,2.4c-9.4-0.3-18.8-1.8-27.6-3.8c-8.8-2-17.2-4.6-25.3-7.5
			C2342.5,991.3,2335.3,988.5,2328,985.6z M2052.2,971c89.5,2.6,177.9,1.6,223.3,8.2c2.9,0.4,5.9,0.8,8.9,1.2
			c-50.9,7.2-104.7,7.9-156.8,2.6C2101.9,980.5,2076.6,976.4,2052.2,971z"/>
		<path class="st3" d="M2544.8,966.3c-6.8,7.4-15.3,13.2-24.4,17.7c-9.1,4.5-18.9,7.7-28.9,9.9c-10,2.2-20.1,3.4-30.2,4.1
			c-10.1,0.7-20.2,1-30.3,1.2c10-0.9,20.1-1.8,30-3.2c9.9-1.4,19.8-3.2,29.2-5.9c9.4-2.7,18.5-6.4,26.7-11.1
			c8.2-4.7,15.4-10.6,20.8-17.4L2544.8,966.3z"/>
		<path class="st3" d="M2541.2,961.8c-20,21.7-31.8,48.3-34.5,77.4c4.1-28.7,17.3-54.4,38.2-75.1L2541.2,961.8z"/>
		<path class="st3" d="M2640.1,864.9c3.6,1.4,7,3.2,10.1,5.4c3.1,2.3,5.9,4.9,8.5,7.7c2.5,2.9,4.7,6,6.6,9.3
			c1.9,3.3,3.5,6.8,4.8,10.4c2.7,7.2,4.3,14.8,5.5,22.5c1.2,7.7,2.1,15.5,2.7,23.4c0.6,7.8,1,15.7,1.1,23.5
			c0.1,7.9-0.1,15.7-0.6,23.6c-0.9,15.7-3,31.4-6.1,47c4.1-15.4,7.2-31,9.1-46.8c1-7.9,1.6-15.8,2.1-23.7c0.4-7.9,0.5-15.9,0.4-23.8
			c-0.1-8-0.6-15.9-1.3-23.9c-0.8-8-2-16-4.4-24c-1.2-4-2.7-7.9-4.6-11.8c-1.9-3.8-4.2-7.5-6.9-11c-2.7-3.5-5.9-6.8-9.5-9.7
			c-3.6-2.9-7.8-5.5-12.3-7.5L2640.1,864.9z"/>
		<path class="st3" d="M2636.1,1052.2c9.4,16.9,14.8,35.7,16.8,54.7c2,19.1,0.8,38.5-3,57.6c-3.8,19.1-10,37.9-17.6,56.3
			c-7.6,18.4-16.5,36.3-25.8,54.1c10.2-17.4,20-35,28.6-53.2c8.5-18.2,15.7-36.9,20.6-56.2c4.8-19.3,7.1-39.2,6-59.2
			c-1.1-19.9-5.7-39.9-14.9-58.5L2636.1,1052.2z"/>
		<path class="st3" d="M2623.2,1085.6c7,50.7,18.2,100.8,33.6,149.7c-11.6-49.7-19-100.2-22-150.7L2623.2,1085.6z"/>
		<path class="st3" d="M2651.4,962.5c5.6,22.4,11.2,44.6,12.9,67.3c0.8,11.3,0.6,22.7-1.1,34c-1.7,11.3-4.9,22.5-10,33.1
			c6-10.2,10.2-21.3,12.9-32.7c2.7-11.4,3.9-23,4.1-34.6c0.3-23.3-3.5-46.4-7.2-69.1L2651.4,962.5z"/>
		<path class="st3" d="M1786.4,897.8c-9.3,22.1-9,46.7,0.3,67.8c-6.6-21.9-3.6-45.4,7.5-64.9L1786.4,897.8z"/>
		<path class="st3" d="M1786.1,895.1c1.1,8.1,3.7,16,7.6,23.4c3.9,7.4,8.9,14.2,15,20.2c6,6,13,11.3,20.7,15.5
			c7.7,4.2,16.1,7.4,24.9,9.3c-8.7-2.2-16.9-5.7-24.3-10.1c-7.4-4.4-14.1-9.9-19.7-16c-5.6-6.1-10.3-12.9-13.7-20.1
			c-3.4-7.2-5.6-14.9-6.3-22.6L1786.1,895.1z"/>
		<path class="st3" d="M2526.7,973c0,0,36.3,57.8,41.9,125.6c0,0,9-70-1.2-109.1c0,0,20.1,16.9,23.6,62.2c0,0,12.1-33.8,11.2-81
			c0,0,26.4,44.1,27.6,93.9c0,0,49-130.6,9.7-209.4l-15.1,22.5l-18,38.5l-40.6,29.6l-44.3,11.6L2526.7,973z"/>
		<path class="st21" d="M2633.3,875.1c0,0,16.7,50.6,4.5,117.2c0,0-18.5-33.8-38.3-49.1c0,0-6.1,49.2-7.9,61.2
			c0,0-16.5-37.9-38.1-46.7c0,0,4.1,25.7,4.5,44.8c0,0-17.2-34.2-33.5-46.5c-16.3-12.3,45-58.5,45-58.5l52.5-23L2633.3,875.1z"/>
		<path class="st3" d="M2574.4,1348c0.4,0,0.7-0.1,1.1-0.1c4.6-20.9,13.2-60.5,15.2-73.6c0,0,12.9,35.2,11.4,74c0.3,0,0.7,0.1,1,0.2
			c9.9-62.8,49.4-312.9,57-348.6l-34.5,102c0,0-5.3-57.4-14.4-88c0,0-11.1,47.4-22.1,61.6c0,0-3.9-21.4-7.9-47.3l-9.6,85.5
			l-13.6-31.2C2558.4,1084.8,2587.7,1240,2574.4,1348z"/>
		<path class="st3" d="M2636.1,1097.4l-27.7,177.6l-12.7-43.2l-9,35.8c0,0-3.1-109.4-18.4-149.8l14.5,15l-2.3-58.6l11,35.1
			c0,0,14.8-48.2,17-60.2c0,0,11.7,38.5,11.4,72.7C2619.9,1121.8,2629.3,1104.8,2636.1,1097.4z"/>
		<path class="st3" d="M2609.8,1232.6l15.6-101.4l-15.4,20.4c0,0-1.7-42-1-59.6l-19.7,60.7l-10.6-16.5c0,0,14.4,60.5,11,89.2
			l12.6-34.1L2609.8,1232.6z"/>
		<path class="st3" d="M1924.3,933.7c48.9,16.4,103.1,26.5,157.6,30.3c54.5,3.8,109.5,1.1,160.1-8.1c-51.6,7.5-106.3,8.3-159.3,2.9
			c-53-5.4-104.4-16.9-149.5-33.9L1924.3,933.7z"/>
		<path class="st3" d="M2254.1,954.4c16.9,4.9,32.1,11.5,48.7,17.1c8.3,2.8,17,5.4,26.3,7.4c9.2,2,19,3.3,28.9,3.6
			c9.8,0.2,19.6-0.7,28.1-2.9c4.2-1.1,8.1-2.5,11.3-4.3c3.2-1.8,5.7-3.8,7.5-6c3.5-4.4,4.5-9.3,5.8-14c1.2-4.7,2.7-9.5,7-13.7
			c-4.5,4.1-6.3,8.9-7.7,13.6c-1.5,4.7-2.8,9.5-6.4,13.7c-1.9,2.1-4.3,4.1-7.5,5.7c-3.1,1.6-6.9,3-11,4c-8.2,2-17.7,2.8-27.1,2.4
			c-9.4-0.3-18.8-1.8-27.6-3.8c-8.8-2-17.2-4.6-25.3-7.5c-16.1-5.7-31-12.5-48.3-17.8L2254.1,954.4z"/>
		<path class="st3" d="M2436.2,621.8c2.3-28.7-14.8,12.5-35.7-7.5c18,22.2,29.9-19.1,24.1,6.2L2436.2,621.8z"/>
		<path class="st3" d="M1887.2,529.2c32.4-30.4,76.8-51.6,124.6-58.7c-48.3,3.7-95.8,21.8-132.8,51.3L1887.2,529.2z"/>
		<path class="st3" d="M2038.3,520.3c30.6-22.6,69.2-37.5,109.8-42.1c-40.9,1.1-82,12.8-116.8,33.8L2038.3,520.3z"/>
		<polygon class="st3" points="2117.2,528.3 2191.1,481.3 2111,519.5 		"/>
		<path class="st3" d="M2358.6,566.6c6.4-28.6-8.1,11.1-28.2-9.9c16.9,23.1,26.1-17.2,16.8,7.4L2358.6,566.6z"/>
		<path class="st3" d="M2319.7,601c-8.6-31-54.6-85.1-84.7-99.6c28.1,17.5,69.2,72.9,73.2,101.6L2319.7,601z"/>
		<path class="st3" d="M1778.6,910c95.6,54.2,272.8,37,366.6,40.7c88.3,3.5,242.8,19,312.7,26.4c2.2,0.2,4.4,0.4,6.6,0.6
			c0.6,0,1.2,0.1,1.9,0.1c1.7,0.1,3.3,0.2,5,0.3c0.3,0,0.5,0,0.8,0c0.9,0,1.8,0.1,2.7,0.1c0.1,0,0.2,0,0.3,0
			c2.2,0.1,4.3,0.1,6.5,0.1c15.2-0.1,30.4-1.8,45.1-5.2c53.3,168.6,39.5,376.4,39.5,376.4c2.7-0.6,5.4-1,8.2-1.4
			c0.4,0,0.7-0.1,1.1-0.1c8.3-1,17.2-1,26.6,0.4c0.3,0,0.7,0.1,1,0.2c2.8,0.5,5.7,1,8.7,1.8c4.3-23.2,45.9-249,58-403.1
			c2.7-33.6-3.4-61.3-14.6-84.2c2-9.9,2.4-20.1,1.3-30c-1.4-12.2-5.1-24.2-11-35.1c-0.6-29.6-6.7-58.9-18.1-86.3
			c7.8,24.5,11.5,49.8,11.1,75c-0.3-0.4-0.5-0.7-0.7-1.1c0.3,0.4,0.5,0.8,0.7,1.2c0,2.3-0.1,4.7-0.2,7
			c-14.4-64.1-52.3-119.6-53.1-120.8c0,0,0,0.1,0.1,0.3c7.8,20.1,2.6,56.6,2.6,56.6c-0.2-1.3-0.5-2.5-0.8-3.7
			c-0.2-22.9-6.7-45.7-19-65.7c-14.4-23.5-59.3-70.8-85.7-83.4c25.9,13.3,69.8,61.1,83.1,84.6c8.7,15.3,13.9,32,15.6,48.9
			c-8.9-16.4-24.7-28.8-42.6-38.1c-8.9-9.9-17.2-17.8-23.4-23.3c-34.7-31.1-84.5-71.3-84.5-71.3c-0.5,13,15.5,52.2,8.9,60.5
			c-2.1-8.4-4.9-18.4-4.9-18.4c-2-21.6-43.1-48.8-58.9-44.3c-1.9-5.1-3.2-8.2-3.2-8.2c-0.7,3.5,20.8,34.6,19.4,37.9
			c-3.9,1.4-7.4,2.9-10.1,4.2c0.1-9-23.9-49.3-23.9-49.3c0.6-38.1-63.3-15.2-63.3-15.2c0.5,1.1,0.9,2.4,1.4,3.8
			c-3.5-4.2-7.2-7.9-11.1-11c-6.6-14.6-13.1-29.1-19.4-43.8c4,12.9,8,25.9,12.2,38.8c-9.2-5.6-19.1-8.8-28.8-10.4
			c-12.5-14.6-20-23.5-20-23.5c-51.1-2.9-109.1,20.6-109.1,20.6c9.3-11.8,40.5-28.6,40.5-28.6c-92.7-6.3-165.1,33.8-165.1,33.8
			c6.9-12,69.6-50,69.6-50c-103.7-2.2-174.6,48.1-174.6,48.1c2-10.2,37.5-55.9,37.5-55.9c-64.2,5.9-132.6,65.3-132.6,65.3
			c12.8-21.3,59.3-55.7,59.3-55.7c-55.8,13.4-74.2,64.1-103.4,94.7c18.4-28.6,22.3-81.1,54.1-98.9c-36.2,18.8-44,74.2-64.1,107.1
			c-17.9,29.3-23.2,7.5-22.6,28.8c-11.4,16.7-20.6,34.6-27.3,53.2c-0.5-32.6,4.7-65.4,15.6-96.9c-15.4,37.1-22.7,76.8-21.8,116.6
			 M1718.6,617.1c-10.1,19.7-17.2,41.2-21.8,64.4c-0.5,2.5-4.4,2.4-4.6-0.2c-0.3-3.7-0.5-7.3-0.7-11c0-0.2,0-0.5,0.1-0.7
			c5.2-18.9,12.9-37.2,23-54.6c1.1-1.9,4.2-1.3,4.3,1c0,0,0,0.1,0,0.1C1718.9,616.4,1718.8,616.8,1718.6,617.1z M1729.8,598
			c-1.2,1.7-2.3,3.5-3.4,5.3C1726.1,597.8,1727,598.7,1729.8,598z M2648.7,851.1c-1.5-2.4-3-4.8-4.6-7.1c-0.3-0.4-0.4-0.8-0.4-1.2
			c0.1-3.1,0-6.1-0.1-9.2c0-0.1,0-0.2,0-0.3c0.9-6.9,1.5-13.9,1.8-20.8c0.1-2.6,3.8-3,4.5-0.5c2,7,3.3,14.1,3.7,21.3
			c0.3,5.7,0.1,11.4-0.6,17C2652.7,852.3,2649.8,852.9,2648.7,851.1z"/>
	</g>
	<polygon class="st11" points="2290.6,1269.6 2280.1,1245.5 2267.4,1265.9 	"/>
	<g id="Слой_4">
	</g>
	
		<ellipse transform="matrix(0.3175 -0.9483 0.9483 0.3175 598.8651 3342.1316)" class="st1" cx="2621.1" cy="1255.1" rx="117.2" ry="75.1"/>
	
		<ellipse transform="matrix(0.3175 -0.9483 0.9483 0.3175 592.5028 3347.3684)" class="st12" cx="2621.5" cy="1262.1" rx="76.2" ry="35.1"/>
	<g>
		<path class="st22" d="M2119.1,1636.5c34.1,0,52.8-13.3,52.8-13.3s-26.7,5.9-52.8,5.9c-26.1,0-52.8-5.9-52.8-5.9
			S2085,1636.5,2119.1,1636.5z"/>
		<path class="st22" d="M2119.1,1597.6l84-3.2c0,0-25.6-13.8-84-13.8l0,0c0,0,0,0,0,0c0,0,0,0,0,0l0,0c-58.4,0-84,13.8-84,13.8
			L2119.1,1597.6L2119.1,1597.6L2119.1,1597.6L2119.1,1597.6L2119.1,1597.6z"/>
		<path class="st23" d="M2258.5,1587.7c0,0-19.3,5.5-55.9,9.6c-21.8,2.5-49.8,4.4-83.5,4.4c-33.7,0-61.6-2-83.5-4.4
			c-36.5-4.1-55.9-9.6-55.9-9.6s25.9,3.2,64.5,5.6c21.7,1.3,47.4,2.3,74.8,2.3s53.1-1,74.8-2.3
			C2232.6,1590.9,2258.5,1587.7,2258.5,1587.7z"/>
	</g>
	<path class="st1" d="M3157,1074"/>
	<path class="st24" d="M1958,1083.5c0,0,2.3-9.4,2.8-11.7c0,0-71.3-21.8-110.2-20.8l8.6,4.4c0,0-32.3-6.3-57.8-1.6l7,1.2
		c0,0-17.6,0.6-35,8.8l-2.6,22.7c3.5-0.8,7.1-1.4,10.7-1.6c0,0-5.3-1.4-8.4-1.6c0,0,32.9-3.6,58.5,4.2
		c25.7,7.8,122.2,35.7,122.2,35.7s17.9-25.3,18.3-47.5L1958,1083.5z"/>
	<path class="st13" d="M1795.9,1091.3l-10.3-4c0,0,18.3,1.2,36.5,7.1c18.2,5.9,115.7,40.2,123.7,38.5c10.9-18.7,11-44.3,11-44.3
		l-18.3,28.9l-0.1,2c-4-4.6-7.8-9-8.2-9.2c-0.7-0.5-82.1-22.6-82.1-22.6l-48.7-10.9l-16.9-0.4l-10.9,3.1"/>
	<g>
		<path class="st24" d="M2398.6,1078l10,0.1c-33.8-8.8-80.4-8.4-80.4-8.4l13.2-2.7c-53.5-7.7-158.8,0.7-158.8,0.7
			c-0.1,2.3,0.3,11.6,0.3,11.6l-17.1-9.7c-6.1,21.1,11,48.1,11,48.1s141.9-9.8,179.8-12.8c37.9-3,82.3,6,82.3,6
			c-4.4-0.4-12.1,0.1-12.1,0.1c26.1,4.2,49.7,19.2,50.4,19.7c0,0,0,0,0,0c-9-10.8-22.6-24.8-41.5-36.4
			C2421.7,1085.7,2408.8,1080.8,2398.6,1078z"/>
	</g>
	<path class="st3" d="M2262,1000"/>
	<path class="st3" d="M2337.9,1033.4"/>
	<path class="st3" d="M1942.8,988"/>
	<path class="st25" d="M1745.2,818c0,0-32.7-44-27.6-103c2.1-24.4,7.9-44.9,14.3-60.7c9.1-22.4,19.5-35.5,22.5-37.3
		c5.1-3-18.4,51-18.4,73s9.2,78,9.2,78l9.2-51l14.3-39l12.3-18c0,0,4.1,0,0,18c-4.1,18-17.4,38-12.3,47s8.2,51,12.3,33
		c2-9,5.6-17,8.7-22.8c3.1-5.8,5.6-9.3,5.6-9.3v25.3V768l17.4-1c0,0-3.1-39,3.1-24c6.1,15,14.3,7,14.3,7l15.2-42.9l2.2-6.1l8.2,49
		c0,0,8.2-6,11.3-33c3.1-27,0-57,0-52s30.7,22,29.7,44c-1,22,4.1,49,4.1,49l4.1,12c0,0,15.3-26,18.4-42c3.1-16,1-50,1-50l-12.3-34
		l38.9,42l8.2,46l7.2,36c-4.1-19,0-42,0-42l14.3,28l11.3-4l4.1-33v-39v-43l-4.1-37c0,0,27.6,20,33.8,46c6.1,26,19.4,29,16.4,65
		s0,59,0,59l-9.2,15l14.3-43c10.2,21,14.3,25,14.3,25s5.1-86,10.2-57c5.1,29,12.3,56,12.3,56l17.4-35l6.1,39l8.2,2
		c0,0,10.2-67,11.3-47c1,20,14.3,45,14.3,45l20.5-28c0,0,7.2-25,13.3-6s33.8,71,33.8,71s8.2-72,9.2-51s9.2,38,9.2,38
		s18.4-27,20.5-20s5.1,33,5.1,33l17.4-13v-99c0,0,46,19,45,58c-1,39-7.2,62-7.2,67s59.3-54,51.1-84s16.4-2,16.4-2l13.3,33v40
		l-13.3,28l31.7-54c0,0-3.1,0,0-7c3.1-7,0-29,0-29l-8.2-45c0,0,46,31,46,64s0,71,0,71v17l16.4-24v-34c0,0,7.2-16,6.1-27
		c-1-11,0-22,0-22s2,2,11.3,21s15.3,9,16.4,28s3.1,34,3.1,34c8.2-15,19.4-49,15.3-43c-4.1,6-2,31,4.1,35s0,31,6.1,8s-16.4-64,0-34
		s26.6,47,26.6,47s9.2-23,10.2-21s11.3,21,11.3,21l9.2-21l8.2,22c0,0,1-40,6.1-22c5.1,18,4.1,18,4.1,18l29.7-3l5.1,17
		c0,0,5.3,25.8,3.7,50.4s-7.8,39.6-5.7,26.6s-4.1-20-9.2-37c-5.1-17-4.1-30-6.1-20s-1.2,22.8-1.2,22.8s-9-24.8-13.1-22.8
		c-4.1,2-23.5,29-21.5,23s-6.1-31-6.1-31l-3.5,16.3l-10.8-17.3l-10.2,9c0,0-14.3-9-13.3-9s-24,10.4-24,10.4s1.5-18.4-6.7-21.4
		s-11.3,19.5-11.3,19.5s2-33.5-8.2-22.5s-25.6,43-25.6,43s21-51-1.2-20.5s-41.7,68.5-39.7,50.5s11.1-33.5,5.5-54.2
		c-5.5-20.8-5.5-39.8-5.5-39.8s0-42,0-21s-13.3,27.5-21.5,49.7c-8.2,22.3-23.5,38.3-23.5,38.3l-10.2,11l1-14c0,0-2-33-4.1-43
		s-3.1-29-3.1-29v-26l-21.5,42c0,0,7.2,20-13.3,36c-20.5,16-14.3,40-17.4,20c-3.1-20-0.5-39.8-0.5-39.8l-13.9-24.2c0,0,6.1-24,0-8
		s-17.3,37.4-17.3,37.4s4-42.4-5.2-29.4s-22.5,24.5-22.5,24.5s10.3-48.5,0-24.5s-15.3,44-15.3,44l-14.3-33.4
		c0,14.4-6.1,47.4-11.3,33.4c-5.1-14-29.3-51.6-29-41.3s-2.7,17.9-2.7,17.9l-26.7-41.6c0,0-16.4-15-14.3-13s0,25.6,0,25.6l0,15.4
		c0,0-17.4-21-27.6-28s-8.2-18-13.3-13c-5.1,5-9.2,26-9.2,26h-8.2l-28.3-20l-14.7,20h-7.2c0,0-6.7-12.6-14.1,16.7
		c-7.4,29.3-15.6,35.3-15.6,35.3l7.2-52c0,0-10.9-3.3-7.5-25.7c3.4-22.3,0.3-54.3,0.3-27.3s-15.3,53-15.3,53s-11.9-42.8-14.1-22.9
		c-2.2,19.9-7.3,22.9-7.3,22.9s-1-85-8.2-46c-7.2,39-15.3,54-15.3,54l-1-34l-23.5,45c0,0-23.5-49-23.5-32s-6.1,58-3.1,29
		c3.1-29-17.4-71-17.4-48s0,19,0,19s-18.4-52-19.4-27c-1,25-7.2,40-7.2,40s-26.6-38-24.5-26c2,12,2,26,2,26s-44-69-36.8-39
		c7.2,30,7.2,26,7.2,26l-7.2-13c0,0,4.1,41,0,34c-4.1-7-25.6-50-19.4-21c6.1,29,7.2,29,7.2,29l-7.2,13L1745.2,818z"/>
	<path class="st25" d="M2547.5,1056.1l15.5-45.1c0,0-4,32,5,38s11-16,11-16s6,7,9,11s11,4,11,4s-3-11,3-5s14-9.5,14-9.5s8,2.5,9,4.5
		s3.7,11.2,3.7,11.2s6.8-8.7,8.1-5.9c1.3,2.8,4.1,9.4,7.2,4.6s1.1-5.8,3.1,0.2c1.4,4.1-2.4,8.7-2.7,8.9c-0.1,0.1,0.5-0.7,2.7-2.9
		c7-7,8-12,8-12l2,7l1.6,4.2l-7.6,10.8l-6.4,6.3c0,0-6.8-3.9-6.7-6.6c0.1-2.7,3.1-4.7,0.1,2.3s-6-6.6-6-6.6l-3,4.6l-5.8-0.2
		l-9.5,6.6l-7.3-12.7l-4.5,16.3l-6-15c-2,8-4,13-4,10s-2-20-4-17s-6,20-6,20l-10.5-8.3c0,0,3.5-22.7,2.5-6.7s-6,10-6,10
		s-1.5-22.5-3.2-11.2c-1.7,11.3-6.7,15.3-6.7,15.3s-3-20-3-15S2547.5,1056.1,2547.5,1056.1z"/>
	<path class="st25" d="M2533,990.1l18.7-45.1c0,0-4.8,32,6,38c10.8,6,13.3-16,13.3-16s7.2,7,10.8,11c3.6,4,13.3,4,13.3,4
		s-3.6-11,3.6-5c7.2,6,16.9-9.5,16.9-9.5s9.7,2.5,10.9,4.5c1.2,2,4.4,11.2,4.4,11.2s8.2-8.7,9.7-5.9c1.5,2.8,4.9,9.4,8.7,4.6
		s1.3-5.8,3.7,0.2c1.7,4.1-3,8.7-3.3,8.9c-0.1,0.1,0.6-0.7,3.3-2.9c8.4-7,9.6-12,9.6-12l2.4,7l2,4.2l-9.2,10.8l-7.8,6.3
		c0,0-8.1-3.9-8-6.6s3.7-4.7,0.1,2.3c-3.6,7-7.2-6.6-7.2-6.6l-3.7,4.6l-6.9-0.2l-11.4,6.6l-8.8-12.7l-5.4,16.3l-7.2-15
		c-2.4,8-4.8,13-4.8,10s-2.4-20-4.8-17s-7.2,20-7.2,20l-12.6-8.3c0,0,4.2-22.7,3-6.7c-1.2,16-7.3,10-7.3,10s-1.8-22.5-3.9-11.2
		s-8.1,15.3-8.1,15.3s-3.6-20-3.6-15S2533,990.1,2533,990.1z"/>
	<path class="st25" d="M2880,1022"/>
	<path class="st1" d="M706,865"/>
	<g>
		<g>
			<path d="M1854.5,2544c0.3,0,0.6,0,0.9,0c0.7,8.5-2.6,14.9-6.5,19.4c-3.9,4.6-9.2,9-17.7,8.3c-0.6-8.4,2.7-14.3,6.6-18.8
				C1841.4,2548.7,1848.1,2544.8,1854.5,2544z"/>
			<path d="M1880.4,2632.5c0,0.1,0,0.2,0,0.2c-2.4,7.3-5.8,13.5-10,19.3c-3.8,5.3-8.5,12.4-16.9,12.4c-7.2,0-12-4.7-19.5-4.8
				c-7.8-0.1-12.2,3.9-19.3,4.9c-0.8,0-1.6,0-2.4,0c-5.3-0.8-9.5-4.9-12.6-8.7c-9.1-11.1-16.2-25.4-17.5-43.8c0-1.8,0-3.6,0-5.4
				c0.6-13.1,6.9-23.8,15.4-29c4.5-2.8,10.6-5.1,17.5-4c2.9,0.5,5.9,1.5,8.6,2.5c2.5,1,5.6,2.7,8.6,2.6c2-0.1,4-1.1,6-1.8
				c5.9-2.1,11.7-4.6,19.3-3.4c9.2,1.4,15.7,5.5,19.7,11.7c-7.8,4.9-13.9,12.4-12.8,25.1C1865.3,2621.7,1872,2628.5,1880.4,2632.5z"
				/>
		</g>
	</g>
	<g>
		<path class="st26" d="M1115.9,1940.3l1.1-339.7c0-1.8-0.7-3.5-1.9-4.9l0,0l0,0c-0.8-0.9-1.7-1.8-2.8-2.5l-29.9-27.1l-86.6,24
			l-865.4-1.6c-8.7,0-15.8,4.7-15.8,10.4l-1,308.2l-29,8l30.7,27.8c2.2,2.3,6,3.9,10.5,3.9l977.8,1.8
			C1110.3,1948.5,1115.9,1944.8,1115.9,1940.3z"/>
		<g>
			<linearGradient id="SVGID_4_" gradientUnits="userSpaceOnUse" x1="81.1469" y1="1739.375" x2="1084.7469" y2="1739.375">
				<stop  offset="8.000000e-08" style="stop-color:#3934C4"/>
				<stop  offset="0.272" style="stop-color:#3F39C9"/>
				<stop  offset="0.6182" style="stop-color:#4E47D7"/>
				<stop  offset="1" style="stop-color:#685EEE"/>
			</linearGradient>
			<path class="st27" d="M1071.2,1919.4l-977.8-1.8c-6.8,0-12.4-3.7-12.3-8.2l1.1-339.7c0-5.8,7.1-10.4,15.8-10.4l970.9,1.8
				c8.7,0,15.8,4.7,15.8,10.5l-1.1,339.7C1083.6,1915.8,1078.1,1919.4,1071.2,1919.4z"/>
		</g>
	</g>
	<g>
		<path class="st28" d="M4524.4,1123.5l1.6-299.9c0-1.6-1.1-3.1-2.8-4.4l0,0l0,0c-1.1-0.8-2.4-1.6-4.1-2.2l-44-24l-127.2,21.2
			l-1270.7-1.4c-12.8,0-23.2,4.1-23.2,9.2l-1.5,272.1l-42.5,7.1l45.1,24.5c3.2,2.1,8.9,3.4,15.4,3.4l1435.7,1.6
			C4516.2,1130.7,4524.4,1127.5,4524.4,1123.5z"/>
		<g>
			<linearGradient id="SVGID_5_" gradientUnits="userSpaceOnUse" x1="3005.0674" y1="946.0781" x2="4478.6577" y2="946.0781">
				<stop  offset="8.000000e-08" style="stop-color:#3934C4"/>
				<stop  offset="0.272" style="stop-color:#3F39C9"/>
				<stop  offset="0.6182" style="stop-color:#4E47D7"/>
				<stop  offset="1" style="stop-color:#685EEE"/>
			</linearGradient>
			<path class="st29" d="M4458.8,1105l-1435.7-1.6c-10,0-18.1-3.2-18.1-7.2l1.6-299.9c0-5.1,10.4-9.2,23.2-9.2l1425.6,1.5
				c12.8,0,23.2,4.1,23.1,9.2l-1.6,299.9C4477,1101.8,4468.9,1105,4458.8,1105z"/>
		</g>
	</g>
	<text transform="matrix(1 0 0 1 162.3291 1826.4268)" class="st11 st30 st31">Python</text>
	<text transform="matrix(1 0 0 1 3078.3291 1022.4268)" class="st11 st30 st31">Bloomberg</text>
	<g>
		<path class="st32" d="M1727.6,470.6l1.4-320.9c0-1.7-0.9-3.3-2.4-4.7l0,0l0,0c-1-0.9-2.1-1.7-3.5-2.4l-37.9-25.7l-109.7,22.7
			L147,138.2c-11,0-20,4.4-20,9.8l-1.3,291.2L89,446.8l38.9,26.2c2.8,2.2,7.6,3.7,13.3,3.7l1570.7,1.7
			C1720.6,478.4,1727.6,474.9,1727.6,470.6z"/>
		<g>
			<linearGradient id="SVGID_6_" gradientUnits="userSpaceOnUse" x1="84.7188" y1="280.7881" x2="1688.1719" y2="280.7881">
				<stop  offset="8.000000e-08" style="stop-color:#3934C4"/>
				<stop  offset="0.272" style="stop-color:#3F39C9"/>
				<stop  offset="0.6182" style="stop-color:#4E47D7"/>
				<stop  offset="1" style="stop-color:#685EEE"/>
			</linearGradient>
			<path class="st33" d="M1671.1,450.9l-1570.8-1.7c-8.6,0-15.6-3.5-15.6-7.7l1.4-320.9c0-5.4,9-9.9,20-9.8l1562.1,1.7
				c11,0,20,4.4,19.9,9.9l-1.4,320.9C1686.8,447.4,1679.7,450.9,1671.1,450.9z"/>
		</g>
	</g>
	<text transform="matrix(1 0 0 1 185.3291 372.4268)" class="st11 st30 st31">Algorithms</text>
</g>
</svg>
